<svg 
    xmlns="http://www.w3.org/2000/svg" 
    xmlns:xlink="http://www.w3.org/1999/xlink" version="1.1" x="0px" y="0px" viewBox="0 0 100 125" enable-background="new 0 0 100 100" xml:space="preserve">
    <g>
        <g>
            <path d="M49.273,84.232c0,0,0.243-0.92-1.158-1.73l-12.291-7.175c0,0-1.104-0.651-1.305,0.603l0.201,14.148    c0,0,0.051,0.602,0.853,0.952l12.391,7.876c0,0,0.824,0.453,1.076-0.701L49.273,84.232z"/>
            <path d="M49.119,79.092l0.301-16.255c0,0-0.028-0.879-1.556-1.606l-12.492-6.723c0,0-1.405-0.702-1.405,1.055l0.251,14.849    c0,0-0.351,0.953,1.606,1.857l11.89,7.274C47.714,79.542,49.068,80.645,49.119,79.092L49.119,79.092z"/>
            <path d="M49.671,57.719l0.201-18.261c0,0,0.151-0.729-1.456-1.455l-13.044-6.171c0,0-1.254-0.602-1.305,1.003v16.958    c0,0-0.134,0.765,1.154,1.455l12.993,7.325C48.215,58.572,49.318,59.175,49.671,57.719L49.671,57.719z"/>
            <path d="M32.06,74.125c0,0,0.351-0.854-1.254-1.807L20.07,65.545c0,0-0.853-0.904-0.853,0.352l0.753,13.645    c0,0-0.25,0.4,0.552,0.802l10.787,7.625c0,0,1.003,0.754,1.003-0.4L32.06,74.125z"/>
            <path d="M31.488,53.672c-0.055-0.656,0.209-1.138-1.183-1.923l-11.037-6.071c0,0-1.104-0.803-1.104,0.602l0.652,15.152    c0,0,0.084,0.709,0.803,1.154l10.786,6.472c0,0,1.212,0.494,1.212-0.811C31.618,68.247,31.527,54.139,31.488,53.672L31.488,53.672    z"/>
            <path d="M31.058,30.427c0,0-0.249-0.77-1.655-1.404l-10.787-4.968c0,0-1.706-0.702-1.405,1.003l1.053,16.205    c0,0-0.021,0.891,1.305,1.505l10.636,5.569c0,0,1.444,0.873,1.505-0.351L31.058,30.427z"/>
            <path d="M17.863,77.574l-0.878-12.73c0,0-0.087-0.965-0.877-1.755l-9.131-5.706c0,0-1.272-1.05-1.141,1.23l1.052,11.677    c0,0,0.093,1.158,1.317,1.668l8.428,6.233C16.634,78.188,17.901,79.497,17.863,77.574L17.863,77.574z"/>
            <path d="M15.668,45.177c0,0,0.439-0.965-1.053-1.755L5.484,37.89c0,0-1.052-0.966-1.052,1.141l1.141,14.048    c0,0-0.088,0.878,1.229,1.58l8.516,5.444c0,0,1.23,1.142,1.141-0.613L15.668,45.177z"/>
            <path d="M14.44,23.58c0,0,0.085-0.889-1.317-1.932L3.29,17.259c0,0-0.79-0.527-0.79,1.141l1.404,15.453    c0,0,0.242,0.867,1.053,1.229l9.218,5.444c0,0,1.481,0.548,1.493-0.527C15.681,38.94,14.44,23.58,14.44,23.58L14.44,23.58z"/>
            <path d="M51.664,98.997L51.84,84.86c0,0-0.176-0.878,0.967-1.668l11.763-7.989c0,0,0.966-0.702,0.966,1.052l-0.527,12.906    c0,0,0,1.141-0.702,1.844l-11.414,7.813C52.893,98.82,51.981,99.562,51.664,98.997L51.664,98.997z"/>
            <path d="M51.326,79.943l0.301-16.154c0,0-0.301-1.004,1.255-1.806l12.391-6.774c0,0,1.154-0.451,1.104,0.552l-0.752,15.252    c0,0,0,1.052-0.953,1.806l-11.99,7.424C52.68,80.244,51.477,80.997,51.326,79.943L51.326,79.943z"/>
            <path d="M51.727,58.321l0.25-18.161c0,0,0.152-1.305,1.305-1.706l13.294-6.322c0,0,1.204-0.702,1.154,0.402l-0.651,17.759    c0,0,0.15,1.104-0.953,1.755l-12.692,7.024C53.434,59.075,51.727,60.378,51.727,58.321L51.727,58.321z"/>
            <path d="M66.878,88.122l0.903-14.048c0,0-0.1-0.753,1.355-1.505l10.183-6.672c0,0,0.954-0.552,0.854,0.452l-1.305,13.294    c0,0-0.07,1.142-0.773,1.517L67.88,88.373C67.881,88.373,66.878,89.226,66.878,88.122L66.878,88.122z"/>
            <path d="M67.982,69.76l0.802-15.654c0,0-0.15-0.602,0.954-1.354l10.937-6.472c0,0,1.104-0.602,1.004,0.602l-1.256,14.85    c0,0,0.252,0.803-0.753,1.607L69.236,70.06C69.236,70.06,67.832,71.115,67.982,69.76L67.982,69.76z"/>
            <path d="M69.437,48.74l0.904-17.81c0,0-0.101-0.903,1.053-1.154l11.088-5.268c0,0,1.454-0.451,1.353,0.502l-1.353,16.656    c0,0-0.051,1.455-1.305,1.606l-10.585,5.82C70.591,49.091,69.284,49.988,69.437,48.74L69.437,48.74z"/>
            <path d="M81.077,77.737l1.003-12.492c0,0-0.352-1.806,1.806-2.358l8.378-5.318c0,0,1.052-0.702,0.853,0.452l-1.354,12.793    c0,0-0.352,1.556-1.103,1.856l-8.73,5.92C81.929,78.589,81.077,79.284,81.077,77.737L81.077,77.737z"/>
            <path d="M82.393,60.278l1.316-14.442c0,0-0.044-1.932,1.494-2.414l8.735-4.786c0,0,1.273-0.658,1.009,0.527l-1.764,14.395    c0,0,0.116,0.829-0.957,1.759l-8.736,5.488C83.49,60.805,82.393,61.551,82.393,60.278L82.393,60.278z"/>
            <path d="M84.544,40.392l1.23-16.549c0,0,0.044-1.185,0.79-1.536l10.316-4.61c0,0,0.701-0.615,0.613,0.702l-1.536,16.286    c0,0-0.081,0.71-1.01,1.141l-9.438,5.092C85.51,40.919,84.368,41.665,84.544,40.392L84.544,40.392z"/>
            <path d="M50.312,36.679l-14.328-6.533c0,0-1.053-0.772,0.421-1.334l12.923-5.127c0,0,1.334-0.632,2.81,0.211l13.748,5.491    c0,0,1.159,0.677-0.048,1.062L52.513,36.58C52.513,36.58,51.519,37.307,50.312,36.679L50.312,36.679z"/>
            <path d="M67.936,27.881l-13.11-5.238c0,0-2.136-0.703-0.03-1.317c2.108-0.614,0.118-0.117,0.118-0.117l10.476-4.214    c0,0,1.347-0.995,3.015-0.175l12.788,4.536c0,0,2.693,0.878,0.733,1.405l-11.24,5.004C70.686,27.765,69.428,28.613,67.936,27.881    L67.936,27.881z"/>
            <path d="M84.06,20.623l-13.375-4.595c0,0-2.077-0.41,0.148-1.375l9.19-3.395c0,0,1.053-0.675,2.544-0.088l12.966,4.185    c0,0,1.873,0.469,0.175,0.965l-9.628,4.215C86.081,20.536,85.261,21.004,84.06,20.623L84.06,20.623z"/>
            <path d="M31.062,27.706L19.21,22.35c0,0-1.316-0.556,0.176-1.229l12.525-4.624c0,0,1.77-0.637,3.366-0.058l11.033,4.595    c0,0,2.107,0.702,0.439,1.171l-13.432,5.589C33.315,27.793,32.35,28.291,31.062,27.706L31.062,27.706z"/>
            <path d="M49.264,20.448l-12.086-5.004c0,0-0.995-0.438,0.116-0.79l11.326-4.127c0,0,1.311-0.526,2.34,0.03l11.882,4.273    c0,0,1.815,0.497,0.117,0.966l-11.383,4.653C51.577,20.448,50.641,20.945,49.264,20.448L49.264,20.448z"/>
            <path d="M65.947,14.507L53.333,9.854c0,0-1.229-0.35,0.147-0.819l9.511-3.307c0,0,1.294-0.51,2.604-0.03l11.062,3.483    c0,0,2.516,0.497,0.526,1.082l-9.803,3.981C67.38,14.243,66.561,14.624,65.947,14.507L65.947,14.507z"/>
            <path d="M14.761,20.653L4.372,16.147c0,0-1.2-0.41,0.322-1.053l12.467-4.156c0,0,1.112-0.41,1.755,0l10.681,3.893    c0,0,2.049,0.41,0.264,0.936l-13.199,4.829C16.664,20.595,15.639,21.062,14.761,20.653L14.761,20.653z"/>
            <path d="M32.869,14.102L22.35,9.888c0,0-1.132-0.274,0.343-0.857l10.621-3.529c0,0,1.405-0.548,2.604,0.069L46.06,8.963    c0,0,2.125,0.548,0.206,1.027l-11.684,4.078C34.582,14.068,33.656,14.514,32.869,14.102L32.869,14.102z"/>
            <path d="M48.355,8.448L37.87,4.954c0,0-1.336-0.274,0.137-0.685l9.765-3.254c0,0,0.856-0.48,1.747-0.035l10.52,2.912    c0,0,2.09,0.343,0.206,0.754L50.48,8.243C50.48,8.243,49.383,8.825,48.355,8.448L48.355,8.448z"/>
        </g>
    </g>
</svg>