<svg xmlns="http://www.w3.org/2000/svg" xmlns:xlink="http://www.w3.org/1999/xlink" version="1.1" x="0px" y="0px" viewBox="0 0 91 113.75" enable-background="new 0 0 91 91" xml:space="preserve"><g><path d="M55.228,81.469l35.712-31.123l-3.642-2.977L51.013,79.18c-1.864-1.129-3.705-1.658-5.528-1.606   c-1.698,0.05-3.346,0.604-4.951,1.657L3.61,48.576l-3.569,3.071l36.18,29.798l-0.437,0.998l-0.953,2.19l2.223,0.909   c2.83,1.157,5.77,1.783,8.782,1.723c2.807-0.061,5.65-0.722,8.5-2.112l1.922-0.938l-0.744-1.986L55.228,81.469z M45.739,82.576   c-1.55,0.034-3.093-0.176-4.616-0.593l0.018-0.036l0.526-1.207c1.274-0.823,2.566-1.258,3.872-1.296   c1.411-0.04,2.864,0.38,4.37,1.267l0.396,1.048C48.768,82.284,47.244,82.546,45.739,82.576z"/><polygon points="12.797,47.918 9.063,49.795 41.64,76.983  "/><polygon points="67.877,45.515 63.591,44.651 46.486,76.26  "/><polygon points="82.269,49.795 78.534,47.918 49.745,76.983  "/><polygon points="20.532,46.25 15.903,47.434 43.737,76.634  "/><polygon points="28.075,44.569 23.789,45.431 45.229,76.174  "/><polygon points="75.43,47.434 70.8,46.25 47.645,76.634  "/><path d="M52.435,50.021c-0.205-0.932-0.841-1.222-1.664-1.014c-3.134,0.787-6.258,1.604-9.38,2.428   c-0.724,0.19-1.025,0.716-0.752,1.461c0.254,0.689,0.846,0.873,1.473,0.712c3.127-0.808,6.246-1.643,9.369-2.461   C52.054,50.997,52.404,50.675,52.435,50.021z"/><path d="M43.837,56.1c1.918-0.498,3.828-1.028,5.75-1.517c0.573-0.146,0.94-0.441,1.054-1.067   c-0.204-0.982-0.811-1.329-1.741-1.095c-1.924,0.485-3.844,0.978-5.759,1.486c-0.657,0.175-1.209,0.546-0.98,1.344   C42.403,56.086,43.077,56.295,43.837,56.1z"/><path d="M40.925,12.271c0.198,0.574,0.652,0.769,1.217,0.658c0.613-0.121,0.799-0.566,0.744-1.408   c-0.472-1.375-0.997-3.004-1.598-4.604c-0.206-0.546-0.748-0.698-1.292-0.479c-0.535,0.216-0.806,0.656-0.623,1.227   C39.871,9.209,40.397,10.741,40.925,12.271z"/><path d="M50.768,12.903c0.558,0.196,1.072-0.014,1.269-0.554c0.569-1.564,1.073-3.153,1.541-4.546   c0.076-0.765-0.058-1.238-0.669-1.395c-0.628-0.161-1.094,0.064-1.311,0.701c-0.503,1.492-1.003,2.984-1.494,4.479   C49.891,12.235,50.161,12.691,50.768,12.903z"/><path d="M33.657,17.359c0.328,0.317,0.745,0.337,1.148,0.056c0.331-0.23,0.514-0.526,0.474-1.02   c-0.014-0.055-0.007-0.225-0.088-0.317c-1.106-1.249-2.251-2.461-3.546-3.517c-0.388-0.315-0.807-0.135-1.13,0.174   c-0.436,0.418-0.479,0.977-0.104,1.38C31.452,15.236,32.554,16.3,33.657,17.359z"/><path d="M59.721,17.025c0.852-0.856,1.706-1.708,2.557-2.564c0.263-0.263,0.537-0.521,0.539-0.939   c0.004-0.464-0.224-0.773-0.627-0.992c-0.453-0.244-0.837-0.073-1.143,0.22c-0.975,0.93-1.921,1.888-2.871,2.84   c-0.526,0.526-0.72,1.124-0.13,1.7C58.677,17.907,59.225,17.524,59.721,17.025z"/><path d="M36.458,34.788c0.831,1.41,1.738,2.781,2.596,4.177c1.318,2.145,2.22,4.42,2.227,6.954   c0.002,0.702,0.353,1.076,0.993,1.282l4.039,0.007c-1.641,0.423-3.285,0.841-4.923,1.272c-0.724,0.192-1.025,0.719-0.752,1.461   c0.254,0.692,0.846,0.875,1.473,0.713c3.127-0.808,6.246-1.644,9.369-2.46c0.574-0.15,0.925-0.476,0.955-1.127   c-0.119-0.547-0.4-0.848-0.768-0.981c0.007-0.058,0.024-0.104,0.024-0.167c0.006-2.534,0.909-4.81,2.227-6.954   c0.859-1.396,1.766-2.767,2.597-4.177c1.501-2.548,2.319-5.266,2.174-8.237c-0.281-5.824-5.874-11.244-12.202-11.28   c-6.328,0.036-11.921,5.456-12.203,11.28C34.14,29.522,34.958,32.24,36.458,34.788z M48.479,30.019l-0.261,0.698h0.094l0.573-1.54   c0.227-0.607,0.901-0.918,1.51-0.69c0.606,0.227,0.917,0.902,0.69,1.51l-0.269,0.719h2.143c0.335,0,0.636,0.206,0.759,0.518   c0.121,0.313,0.04,0.668-0.207,0.896c-0.03,0.029-3.411,3.333-3.134,11.809c0.015,0.449-0.338,0.826-0.786,0.841   c-0.01,0-0.019,0-0.027,0c-0.438,0-0.8-0.347-0.814-0.787c-0.201-6.166,1.402-9.833,2.553-11.647H50.21l-0.424,1.138   c-0.176,0.472-0.624,0.764-1.101,0.764c-0.136,0-0.274-0.024-0.409-0.074c-0.608-0.227-0.916-0.902-0.69-1.51l0.118-0.317h-0.093   l-0.432,1.158c-0.177,0.473-0.625,0.765-1.101,0.765c-0.136,0-0.274-0.024-0.41-0.075c-0.607-0.227-0.916-0.902-0.69-1.51   l0.126-0.338h-0.092l-0.44,1.18c-0.175,0.473-0.624,0.765-1.1,0.765c-0.136,0-0.274-0.024-0.41-0.075   c-0.607-0.227-0.916-0.902-0.69-1.51l0.135-0.361h-0.836c1.15,1.814,2.755,5.481,2.554,11.647   c-0.015,0.449-0.407,0.763-0.841,0.787c-0.45-0.015-0.803-0.392-0.788-0.841c0.281-8.556-3.1-11.777-3.134-11.809   c-0.247-0.228-0.328-0.583-0.206-0.896c0.123-0.312,0.423-0.518,0.759-0.518h3.1l0.558-1.497c0.227-0.607,0.902-0.917,1.51-0.689   c0.607,0.227,0.917,0.902,0.69,1.51l-0.252,0.676h0.091l0.566-1.518c0.226-0.608,0.9-0.917,1.51-0.69   C48.396,28.735,48.704,29.411,48.479,30.019z M46.319,17.842c0.56-0.083,1.076,0.295,1.163,0.852   c0.085,0.557-0.296,1.077-0.853,1.163c-3.414,0.526-6.677,3.496-7.276,6.622c-0.093,0.487-0.521,0.827-1,0.827   c-0.064,0-0.128-0.006-0.193-0.019c-0.552-0.105-0.915-0.639-0.809-1.193C38.111,22.124,42.051,18.499,46.319,17.842z"/></g><text x="0" y="106" fill="#000000" font-size="5px" font-weight="bold" font-family="'Helvetica Neue', Helvetica, Arial-Unicode, Arial, Sans-serif">Created by BomSymbols</text><text x="0" y="111" fill="#000000" font-size="5px" font-weight="bold" font-family="'Helvetica Neue', Helvetica, Arial-Unicode, Arial, Sans-serif">from the Noun Project</text></svg>