<svg 
    xmlns="http://www.w3.org/2000/svg" 
    xmlns:xlink="http://www.w3.org/1999/xlink" version="1.1" x="0px" y="0px" viewBox="0 0 100 100" enable-background="new 0 0 100 100" xml:space="preserve">
    <path d="M87.607,33.014c-4.147-7.396-11.42-8.452-14.326-8.563c-1.462-1.745-5.307-5.056-13.998-6.167  c-1.365-0.175-2.754-0.263-4.125-0.263c-7.17,0-12.44,2.374-14.411,3.418c-0.787-0.204-2.003-0.426-3.569-0.426  c-3.048,0-6.193,0.813-9.35,2.418c-5.49,2.792-7.039,7.057-7.139,9.974c-2.067,0.824-5.414,2.88-7.742,7.909  c-2.58,5.573-1.57,9.628-0.787,11.485c-0.873,1.94-2.504,6.435-1.308,10.895c1.396,5.199,7.176,5.972,9.634,6.06  c1.261,1.84,4.177,5.69,7.416,7.172c0.971,0.444,2.123,0.669,3.426,0.669c2.109,0,4.352-0.595,6.009-1.162l0.825,6.548h7.575  l2.151,0.067l-0.152-2.143c-0.002-0.041-0.011-1.041,0.54-5.227c0.423-3.212,2.152-7.369,3.02-9.306  c3.29-0.161,11.462-0.972,14.214-5.045c2.08-3.08,2.36-5.928,2.2-7.847c3.422-0.524,10.101-1.699,13.565-3.335  c4.291-2.026,6.861-4.528,7.859-7.649C90.047,39.641,89.533,36.451,87.607,33.014z M40,66l2.666-15H36l12-23l-2.666,15H52L40,66z"/>
</svg>