<svg 
    xmlns="http://www.w3.org/2000/svg" 
    xmlns:xlink="http://www.w3.org/1999/xlink" viewBox="0 0 100 100" version="1.1" x="0px" y="0px">
    <g stroke="none" stroke-width="1" fill="none" fill-rule="evenodd">
        <path d="M56.6515205,73.4524815 C56.6351084,72.3692849 57.190978,71.3274753 58.085079,70.7209423 C58.3355415,70.5511131 58.6131195,70.409113 58.8079236,70.1772033 C59.7783764,69.0226499 57.8688678,68.1927701 57.3829279,67.4057043 C56.7207366,66.3332113 56.7649778,64.8982256 57.5377722,63.8942351 C57.9502146,63.3583453 58.5260642,62.9744456 59.1090494,62.6319329 C59.4244466,62.4464052 59.7576829,62.2594503 59.9610499,61.9554702 C60.835171,60.6524946 57.9166769,59.5978408 57.4121842,58.726574 C56.9569277,57.9380811 56.8334803,56.9455077 57.1652896,56.0977886 C57.5106566,55.2158183 58.2863053,54.5778883 59.0862152,54.0705413 C59.6777633,53.6952044 60.380628,53.2370936 60.3813416,52.5363696 C60.3820551,52.2252539 60.2757335,51.9348316 60.0902057,51.6665299 C59.0491097,50.1587603 56.1477413,48.1043973 54.2446548,49.3338754 C51.2797788,51.2483789 50.800261,68.9933936 53.4882725,76.4102218 C54.0698306,78.0143232 56.0671081,78.8028161 57.6005662,78.0079011 C58.2163756,77.6889361 58.638808,76.8861718 58.3005766,76.2803524 C57.6833401,75.1714674 56.6743546,74.9531155 56.6515205,73.4524815 L56.6515205,73.4524815 Z M73.6529971,69.4372331 C73.8884746,69.7526302 74.3836909,69.5735246 74.7197816,69.3687305 C75.3370181,68.9933936 76.0926868,68.3283481 76.8133907,68.029363 C76.9218531,67.9844082 77.0288883,67.9480162 77.1344964,67.9216142 C78.0407281,67.6975537 78.7557235,68.2898154 79.5313721,68.6772829 C80.199272,69.0119464 80.9271116,68.3818657 80.7051919,67.6682974 C79.691925,64.4094313 77.9329793,61.4138719 75.6895208,58.8514484 C74.8232489,57.8617293 70.5118697,52.6876461 69.0297885,54.6364009 C68.4710646,55.3706626 67.733235,55.9679192 67.3721695,56.8377589 C67.325074,56.9505027 67.2844006,57.0753771 67.320079,57.1916887 C67.3671745,57.3443923 67.5291545,57.4278798 67.6782903,57.4849653 C68.6416074,57.8524529 69.7240904,57.680483 70.6438798,58.2070963 C71.8961921,58.9256595 72.256544,60.6296604 71.3446038,61.7549575 C70.7459201,62.4942142 70.1479499,63.2327573 69.5485526,63.9713005 C69.4821908,64.0533608 69.4136882,64.1404161 69.3979897,64.2445971 C69.3516078,64.5578535 69.7669045,64.7126978 70.0830152,64.7255421 C70.6581512,64.750517 71.236855,64.6977129 71.8098503,64.7555119 C73.5652282,64.9310497 74.8310982,66.7763372 73.8799118,68.4182577 C73.6936704,68.7393634 73.4310773,69.1396751 73.6529971,69.4372331 L73.6529971,69.4372331 Z M76.4045161,77.5554988 C76.2075713,77.3756796 76.0042044,77.191579 75.7537419,77.1002423 C74.8874701,76.7862723 73.882766,77.6454084 72.9858108,77.6739511 C71.1126942,77.6739511 70.2970857,76.0598598 69.2681203,74.7476078 C69.1075674,74.5428138 68.9420196,74.3330247 68.7179592,74.1995874 C68.4938988,74.0661502 68.1963408,74.0240497 67.9765618,74.163909 C67.8174361,74.2652357 67.7260994,74.4407735 67.6497476,74.6155977 C67.6418983,74.6334369 67.6340491,74.6512761 67.6261998,74.6691153 C67.1802197,75.7123521 66.8027421,76.7848451 66.4017167,77.8452075 C66.0163899,78.8634694 66.7684908,79.9523745 67.8573959,79.9523745 C67.8573959,79.9523745 73.3689969,79.9359624 76.4872901,79.9059926 C77.2586573,79.8988569 77.5148283,79.1767258 77.2215518,78.5338009 C77.0438733,78.1449062 76.7199133,77.8444939 76.4045161,77.5554988 L76.4045161,77.5554988 Z M78.2341051,69.7269418 C78.0614216,69.7262282 77.8973009,69.7933036 77.7424566,69.8682283 C76.6021745,70.4162487 75.6524152,71.4380784 74.3972487,71.5950634 C72.172343,71.873355 70.9435785,69.5114442 72.0032273,67.7089708 C72.1373781,67.480629 72.2936496,67.1966288 72.1545038,66.9718549 C72.0488957,66.8005985 71.8226945,66.758498 71.6221819,66.7442266 C70.7138095,66.6792919 69.7626231,66.8434126 68.9163312,66.5066084 C65.5611333,65.1736629 68.6758587,62.1317216 69.7426432,60.5468865 C69.7954472,60.468394 69.8475377,60.384193 69.8525327,60.290002 C69.8653769,60.0595194 69.6084923,59.9160922 69.3865726,59.8518711 C68.4268234,59.5714388 67.351476,59.6556398 66.4823499,59.1604235 C65.2721382,58.4696894 64.8939471,56.7778191 65.7366711,55.6689341 L67.0596266,53.9292548 C67.581245,53.2428021 67.3571846,52.2502287 66.587958,51.8606205 C65.7416661,51.431766 64.6049519,51.0485798 63.6009614,50.7538762 C62.8852525,50.5440871 62.200227,51.1670322 62.3322371,51.9012939 L62.3450813,51.9712236 C62.6248001,53.5596264 61.6386488,54.8033759 60.3649295,55.6225522 C60.0052911,55.8537483 59.6228186,56.0656781 59.3373913,56.3853566 C59.0526775,56.7043216 58.8792805,57.1660003 59.0291298,57.5670256 C59.146155,57.8809956 59.4315823,58.0964932 59.7120146,58.2791667 C60.5454623,58.820765 61.4866588,59.2510466 62.1124581,60.023841 C63.6630419,61.9411988 61.3667793,63.527461 59.8939745,64.4786475 C59.4073209,64.7926175 58.8692905,65.2179042 58.8914111,65.7958944 C58.9170996,66.4488093 59.6178236,66.8177241 60.1073314,67.2494329 C61.4509804,68.4346697 61.3539351,70.7266509 59.9574821,71.8269731 C59.4444265,72.2308527 58.7322854,72.5512448 58.6416622,73.1977376 C58.561029,73.7721601 59.0341248,74.2602407 59.4679742,74.644854 C60.3720652,75.4469047 60.6646282,76.6292873 60.2892913,77.7966849 C60.2871506,77.803107 60.2842963,77.8102427 60.2821556,77.8166648 C59.841884,79.1517509 61.0991912,80.1892791 62.4742372,79.8674599 C63.2092125,79.6962035 63.7843485,79.1203539 64.051223,78.414635 L65.7602189,73.8984616 C66.1369829,72.9023204 67.0075361,72.2258577 68.0750342,72.1088325 C69.076884,71.9996566 70.0537589,72.4841694 70.6660005,73.284793 L72.2579712,75.3655579 C72.4677602,75.6395681 72.8295393,75.7480305 73.1549264,75.6345731 L74.5528066,75.147206 C75.586767,74.7868541 76.7363254,75.063005 77.4927077,75.8543522 L79.179583,77.6190064 C81.5671823,80.1157816 81.91469,74.294492 81.308157,72.9315767 C80.8571819,71.9175962 79.4978344,69.7319368 78.2341051,69.7269418 L78.2341051,69.7269418 Z M45.7853035,49.3338754 C43.5261465,47.9252917 40.9808486,50.1587603 39.939039,51.6665299 C39.7535112,51.9348316 39.6479031,52.2252539 39.6486167,52.5363696 C39.6493303,53.2370936 40.352195,53.6952044 40.943743,54.0705413 C41.7429395,54.5778883 42.5193017,55.2158183 42.8646687,56.0977886 C43.1964779,56.9455077 43.0730306,57.9380811 42.6177741,58.726574 C42.1132814,59.5978408 39.1947873,60.6524946 40.0681948,61.9554702 C40.2722753,62.2594503 40.6055117,62.4464052 40.9209089,62.6319329 C41.5031805,62.9744456 42.0797437,63.3583453 42.4914725,63.8942351 C43.2642669,64.8982256 43.3085082,66.3332113 42.6470304,67.4057043 C42.1610904,68.1927701 40.2515819,69.0226499 41.2220347,70.1772033 C41.4168388,70.409113 41.6944168,70.5511131 41.9448793,70.7209423 C42.8389803,71.3274753 43.3948499,72.3692849 43.3784378,73.4524815 C43.3548901,74.9531155 42.3466182,75.1714674 41.7286681,76.2803524 C41.3911503,76.8861718 41.8135827,77.6889361 42.4293921,78.0079011 C43.9628502,78.8028161 45.9601277,78.0143232 46.5416858,76.4102218 C49.2296973,68.9933936 48.0130635,50.7224792 45.7853035,49.3338754 L45.7853035,49.3338754 Z M19.3247664,67.6682974 C19.1028467,68.3818657 19.8306863,69.0119464 20.4985862,68.6772829 C21.2742348,68.2898154 21.9892302,67.6975537 22.8947483,67.9216142 C23.0010699,67.9480162 23.1081052,67.9844082 23.2165676,68.029363 C23.9365579,68.3283481 24.6922267,68.9933936 25.3101767,69.3687305 C25.6455538,69.5735246 26.1414837,69.7526302 26.3769612,69.4372331 C26.598881,69.1396751 26.3362878,68.7393634 26.1500465,68.4182577 C25.1988601,66.7763372 26.4647301,64.9310497 28.2193944,64.7555119 C28.7931033,64.6977129 29.3718071,64.750517 29.9469431,64.7255421 C30.2630538,64.7126978 30.6783505,64.5578535 30.6319686,64.2445971 C30.6162701,64.1404161 30.5477675,64.0533608 30.4806921,63.9713005 C29.8820084,63.2327573 29.2833246,62.4942142 28.6853545,61.7549575 C27.7734143,60.6296604 28.1337662,58.9256595 29.3860785,58.2070963 C30.3058679,57.680483 31.3883509,57.8524529 32.3509544,57.4849653 C32.5008038,57.4278798 32.6627838,57.3443923 32.7098793,57.1916887 C32.7455577,57.0753771 32.7041707,56.9505027 32.6577888,56.8377589 C32.2960097,55.9679192 31.5581801,55.3706626 31.0001698,54.6364009 C29.517375,52.6876461 25.2067093,57.8617293 24.3404375,58.8514484 C22.0962654,61.4138719 20.3380333,64.4094313 19.3247664,67.6682974 L19.3247664,67.6682974 Z M32.4037585,74.6691153 C32.3959092,74.6512761 32.38806,74.6334369 32.3802107,74.6155977 C32.3038589,74.4407735 32.2125222,74.2652357 32.0533965,74.163909 C31.8336175,74.0240497 31.535346,74.0661502 31.3119991,74.1995874 C31.0879387,74.3330247 30.9223908,74.5428138 30.761838,74.7476078 C29.732159,76.0598598 28.9165506,77.6739511 27.0441475,77.6739511 C26.1464787,77.6454084 25.1424882,76.7862723 24.2762164,77.1002423 C24.0257539,77.191579 23.8216734,77.3756796 23.6254421,77.5554988 C23.310045,77.8444939 22.986085,78.1449062 22.8084065,78.5338009 C22.51513,79.1767258 22.771301,79.8988569 23.5426682,79.9059926 C26.6602478,79.9359624 32.1725624,79.9523745 32.1725624,79.9523745 C33.2607539,79.9523745 34.0135684,78.8634694 33.6282416,77.8452075 C33.2272162,76.7848451 32.8497386,75.7123521 32.4037585,74.6691153 L32.4037585,74.6691153 Z M40.0724762,71.8269731 C38.6760232,70.7266509 38.5782644,68.4346697 39.9226269,67.2494329 C40.4121347,66.8177241 41.1128587,66.4488093 41.1378336,65.7958944 C41.1606678,65.2179042 40.6219238,64.7926175 40.1359838,64.4786475 C38.6624654,63.527461 36.3669164,61.9411988 37.9175002,60.023841 C38.542586,59.2510466 39.4837825,58.820765 40.3172301,58.2791667 C40.598376,58.0964932 40.8838033,57.8809956 41.0008285,57.5670256 C41.1506778,57.1660003 40.9772808,56.7043216 40.692567,56.3853566 C40.4071397,56.0656781 40.0246672,55.8537483 39.6650288,55.6225522 C38.3913095,54.8033759 37.4051582,53.5596264 37.6848769,51.9712236 L37.6970076,51.9012939 C37.8297313,51.1670322 37.1447058,50.5440871 36.4289969,50.7538762 C35.4250064,51.0485798 34.2882922,51.431766 33.4420003,51.8606205 C32.6727737,52.2502287 32.4487133,53.2428021 32.9703317,53.9292548 L34.2932872,55.6689341 C35.1360112,56.7778191 34.7578201,58.4696894 33.5476084,59.1604235 C32.6784823,59.6556398 31.6031349,59.5714388 30.6426721,59.8518711 C30.421466,59.9160922 30.1645814,60.0595194 30.1767121,60.290002 C30.1824206,60.384193 30.2345111,60.468394 30.2873151,60.5468865 C31.3540996,62.1317216 34.4681114,65.1736629 31.1129136,66.5066084 C30.2666216,66.8434126 29.3161488,66.6792919 28.4077764,66.7442266 C28.2072637,66.758498 27.980349,66.8005985 27.8747409,66.9718549 C27.7355951,67.1966288 27.8925802,67.480629 28.026731,67.7089708 C29.0863798,69.5114442 27.8576153,71.873355 25.6327096,71.5950634 C24.3775431,71.4380784 23.4270702,70.4162487 22.2875017,69.8682283 C22.1326574,69.7933036 21.9678232,69.7262282 21.7958532,69.7269418 C20.5314103,69.7319368 19.1727764,71.9175962 18.7218013,72.9315767 C18.1152683,74.294492 18.462776,80.1157816 20.8503753,77.6190064 L22.5372506,75.8543522 C23.2936329,75.063005 24.4431913,74.7868541 25.4771517,75.147206 L26.8750319,75.6345731 C27.200419,75.7480305 27.5621981,75.6395681 27.7719871,75.3655579 L29.3632443,73.284793 C29.9761994,72.4841694 30.9530743,71.9996566 31.9549241,72.1088325 C33.0224221,72.2258577 33.8929754,72.9023204 34.2690258,73.8984616 L35.9780217,78.414635 C36.2456098,79.1203539 36.8207458,79.6962035 37.5557211,79.8674599 C38.9307671,80.1892791 40.1880743,79.1517509 39.7470891,77.8166648 C39.7449484,77.8102427 39.7428077,77.803107 39.740667,77.7966849 C39.3653301,76.6292873 39.6578931,75.4469047 40.561984,74.644854 C40.9958335,74.2602407 41.4689293,73.7721601 41.3882961,73.1977376 C41.2976729,72.5512448 40.5855318,72.2308527 40.0724762,71.8269731 L40.0724762,71.8269731 Z M8.49208717,46.9255826 C8.29300163,46.7935725 8.06251909,46.6851101 7.81847876,46.620889 C6.62182484,46.3033511 5.39377392,47.0162058 5.07552249,48.2135733 C4.75798463,49.4102272 5.47083929,50.6389917 6.66820678,50.9565295 L14.3019597,52.9816362 C14.6723016,53.079395 15.0804626,52.9388221 15.3059502,52.603445 C15.5899503,52.1795855 15.476493,51.6058766 15.0526335,51.3218765 L8.49208717,46.9255826 Z M25.3936642,44.2147369 C25.7269006,44.0020936 25.8246594,43.5589677 25.6120161,43.2257314 L19.8913396,34.2554652 C19.7850179,34.0899173 19.6480128,33.9265102 19.4931685,33.7895051 C18.5805148,32.9810323 17.1847753,33.0659469 16.3763025,33.9793143 C15.5685433,34.8926816 15.6534579,36.2877075 16.5668252,37.0961803 L24.5331009,44.1476615 C24.7664377,44.3538827 25.1175133,44.3909883 25.3936642,44.2147369 L25.3936642,44.2147369 Z M35.9009564,38.6146535 C36.1257304,39.0278095 36.6159517,39.2433071 37.0854796,39.1034477 C37.6242236,38.9436084 37.931058,38.3763217 37.7712187,37.8375777 L34.2262117,25.9174204 C34.1805434,25.7682847 34.1163222,25.6098725 34.0392569,25.4678724 C33.4248746,24.3397211 32.0120095,23.9229972 30.8838582,24.5373795 C29.7557068,25.1517617 29.338983,26.5646268 29.9533652,27.6927782 L35.9009564,38.6146535 Z M94.6704356,47.6684071 C94.0332192,46.642296 92.6845753,46.3276124 91.6584642,46.9655424 L84.9844605,51.1120874 C84.5534653,51.3803891 84.3365406,51.9141381 84.4906713,52.4229123 C84.6747719,53.031586 85.3169833,53.3755258 85.925657,53.1914252 L93.4459526,50.9165697 C93.6214904,50.8623385 93.8034502,50.7824189 93.9668574,50.6803786 C94.9929685,50.0431622 95.3076521,48.6945183 94.6704356,47.6684071 L94.6704356,47.6684071 Z M83.2262284,33.7823694 C82.2743284,33.1323088 80.9763478,33.3770627 80.3262871,34.3282491 L74.3480125,43.0787363 C74.1039722,43.436234 74.1310878,43.9278825 74.4407764,44.2554103 C74.7975605,44.6336015 75.39339,44.6514407 75.7715811,44.2946566 L83.4809723,37.0233963 C83.5844397,36.9242103 83.687907,36.805758 83.7721081,36.6823107 C84.4221688,35.7311243 84.1774149,34.4324301 83.2262284,33.7823694 L83.2262284,33.7823694 Z M63.0058455,38.7124123 C63.3162477,38.8900908 63.7115645,38.7830556 63.889243,38.4726534 L70.0880102,27.6549591 C70.1764926,27.497974 70.253558,27.3174413 70.3035078,27.1347678 C70.6296085,25.9459631 69.929598,24.7179122 68.7407934,24.3918115 C67.5512751,24.0664244 66.3232242,24.7664349 65.9978371,25.9552395 L62.7032926,37.9795777 C62.6276544,38.2571558 62.7446796,38.562563 63.0058455,38.7124123 L63.0058455,38.7124123 Z M52.5035483,22.6949463 L51.1884421,35.7404006 C51.1256481,36.3604914 50.5726327,36.8121801 49.9532555,36.7500997 C49.4102301,36.6951549 48.9963605,36.2634462 48.94427,35.7404006 L47.6291638,22.6949463 C47.4935858,21.3491566 48.4747421,20.1482213 49.8205318,20.0126433 C51.1663215,19.8763518 52.3679704,20.8575081 52.5035483,22.2040114 C52.5199604,22.3659913 52.5178197,22.5386749 52.5035483,22.6949463 L52.5035483,22.6949463 Z" fill="#ffffff"/>
    </g>
</svg>