<svg xmlns:dc="http://purl.org/dc/elements/1.1/" xmlns:cc="http://creativecommons.org/ns#" xmlns:rdf="http://www.w3.org/1999/02/22-rdf-syntax-ns#" xmlns:svg="http://www.w3.org/2000/svg" xmlns="http://www.w3.org/2000/svg" xmlns:sodipodi="http://sodipodi.sourceforge.net/DTD/sodipodi-0.dtd" xmlns:inkscape="http://www.inkscape.org/namespaces/inkscape" version="1.1" x="0px" y="0px" viewBox="0 0 100 125"><g transform="translate(0,-952.36218)"><path style="font-size:medium;font-style:normal;font-variant:normal;font-weight:normal;font-stretch:normal;text-indent:0;text-align:start;text-decoration:none;line-height:normal;letter-spacing:normal;word-spacing:normal;text-transform:none;direction:ltr;block-progression:tb;writing-mode:lr-tb;text-anchor:start;baseline-shift:baseline;opacity:1;color:#000000;fill:#000000;fill-opacity:1;fill-rule:nonzero;stroke:none;stroke-width:3.99999951999999980;marker:none;visibility:visible;display:inline;overflow:visible;enable-background:accumulate;font-family:Sans;-inkscape-font-specification:Sans" d="M 49.78125 5.96875 A 2.0001998 2.0001998 0 0 0 48 8 L 48 20 A 2.0001998 2.0001998 0 1 0 52 20 L 52 8 A 2.0001998 2.0001998 0 0 0 49.96875 5.96875 A 2.0001998 2.0001998 0 0 0 49.78125 5.96875 z M 29.84375 13.96875 A 2.0001998 2.0001998 0 0 0 28.3125 17.03125 L 33.3125 25.0625 A 2.0001998 2.0001998 0 1 0 36.6875 22.9375 L 31.6875 14.9375 A 2.0001998 2.0001998 0 0 0 29.84375 13.96875 z M 69.90625 13.96875 A 2.0001998 2.0001998 0 0 0 68.3125 14.9375 L 63.3125 22.9375 A 2.0001998 2.0001998 0 1 0 66.6875 25.0625 L 71.6875 17.03125 A 2.0001998 2.0001998 0 0 0 69.90625 13.96875 z M 13.46875 26.96875 A 2.0001998 2.0001998 0 0 0 12.625 30.71875 L 23.03125 36.71875 A 2.0020131 2.0020131 0 1 0 25.03125 33.25 L 14.625 27.25 A 2.0001998 2.0001998 0 0 0 13.46875 26.96875 z M 86.25 26.96875 A 2.0001998 2.0001998 0 0 0 85.375 27.25 L 74.96875 33.25 A 2.0020131 2.0020131 0 1 0 76.96875 36.71875 L 87.375 30.71875 A 2.0001998 2.0001998 0 0 0 86.25 26.96875 z M 50 28 C 37.849691 28 28 37.42833 28 49 C 28 60.34201 38.427708 66.989799 39.84375 76 L 48 76 L 48 53.4375 C 46.806209 52.745406 46 51.479182 46 50 C 46 47.7908 47.79086 46 50 46 C 52.20914 46 54 47.7908 54 50 C 54 51.479182 53.193791 52.745406 52 53.4375 L 52 76 L 60.15625 76 C 61.572292 66.989799 72 60.34201 72 49 C 72 37.42833 62.150309 28 50 28 z M 12.8125 48 A 2.0021961 2.0021961 0 1 0 13 52 L 20 52 A 2.0001998 2.0001998 0 1 0 20 48 L 13 48 A 2.0001998 2.0001998 0 0 0 12.8125 48 z M 79.8125 48 A 2.0021961 2.0021961 0 1 0 80 52 L 87 52 A 2.0001998 2.0001998 0 1 0 87 48 L 80 48 A 2.0001998 2.0001998 0 0 0 79.8125 48 z M 23.90625 62.96875 A 2.0001998 2.0001998 0 0 0 23.03125 63.25 L 12.625 69.25 A 2.0020348 2.0020348 0 0 0 14.625 72.71875 L 25.03125 66.71875 A 2.0001998 2.0001998 0 0 0 23.90625 62.96875 z M 75.84375 62.96875 A 2.0001998 2.0001998 0 0 0 74.96875 66.71875 L 85.375 72.71875 A 2.0020348 2.0020348 0 0 0 87.375 69.25 L 76.96875 63.25 A 2.0001998 2.0001998 0 0 0 75.84375 62.96875 z M 40 80 L 40 88 C 40 90.216 41.784002 92 44 92 L 56 92 C 58.215998 92 60 90.216 60 88 L 60 80 L 40 80 z " transform="translate(0,952.36218)"/></g><text x="0" y="115" fill="#000000" font-size="5px" font-weight="bold" font-family="'Helvetica Neue', Helvetica, Arial-Unicode, Arial, Sans-serif">Created by bezier master</text><text x="0" y="120" fill="#000000" font-size="5px" font-weight="bold" font-family="'Helvetica Neue', Helvetica, Arial-Unicode, Arial, Sans-serif">from the Noun Project</text></svg>