<svg xmlns="http://www.w3.org/2000/svg" xmlns:xlink="http://www.w3.org/1999/xlink" version="1.1" x="0px" y="0px" viewBox="0 0 100 125" enable-background="new 0 0 100 100" xml:space="preserve"><path d="M46,78.3v-2.3c0-0.8,0.6-1.4,1.4-1.4H51c0.8,0,1.4,0.6,1.4,1.4v2.3c0,0.8-0.6,1.4-1.4,1.4h-3.6C46.6,79.7,46,79.1,46,78.3z   M57,53.7c-1.7-1.5-4.1-2.3-7.2-2.3c-2.8,0-5.1,0.7-6.8,2c-1.5,1.2-2.4,2.8-2.5,5c0,0.5,0.4,0.9,0.9,1l4.1,0.1c0.7,0,1.3-0.4,1.5-1  c0.1-0.5,0.4-0.9,0.8-1.3c0.6-0.5,1.3-0.8,2.1-0.8c1.1,0,1.9,0.3,2.4,1c0.6,0.6,0.9,1.5,0.9,2.6c0,1-0.2,1.9-0.7,2.7  c-0.5,0.8-1.2,1.5-2,2c-1.7,1.2-2.8,2.2-3.4,3.1c-0.5,0.7-0.8,1.7-0.9,2.9c-0.1,0.6,0.4,1.1,1,1.1h4.5c0.5,0,0.9-0.4,1-0.9  c0.1-0.6,0.2-1.2,0.4-1.6c0.3-0.6,0.8-1.2,1.7-1.7c1.5-0.8,2.7-1.8,3.6-3.2c0.9-1.3,1.4-2.8,1.4-4.4C59.6,57.3,58.7,55.3,57,53.7z   M67.5,35.5c0-1-0.5-2-1.3-2.7c-3.5-2.8-7.1-4.9-9-5.9c-0.2,0.5-2,4.6-3.3,6.7c-0.1,0.2-0.4,0.2-0.5,0c-0.3-0.9-1.2-2.8-2.3-3  c-0.2,0-0.3-0.3-0.1-0.4c1.3-1,3.9-3.1,4.9-4.4v-3.2c0.5-0.9,0.9-1.9,1-2.7c0.4,0,0.9-0.6,1.4-2.5c0.7-2.4,0-2.9-0.6-2.9  c0.1-0.2,0.1-0.4,0.1-0.6c1.1-6.8-2.2-7-2.2-7s-0.6-1.1-2-1.9c-1-0.6-2.3-1-4.1-0.9c-0.6,0-1.1,0.1-1.6,0.3l0,0  c-0.7,0.2-1.3,0.5-1.8,0.9c-0.7,0.4-1.3,0.9-1.9,1.5c-0.9,0.9-1.7,2.1-2,3.5c-0.3,1.1-0.2,2.2,0,3.4h0c0,0.2,0.1,0.4,0.1,0.6  c-0.6,0-1.2,0.5-0.6,2.9c0.5,1.9,1,2.4,1.4,2.5c0.1,0.9,0.5,1.8,1,2.7v3.2c1,1.2,3.6,3.3,4.9,4.4c0.2,0.1,0.1,0.4-0.1,0.4  c-1.2,0.2-2,2-2.3,3c-0.1,0.2-0.4,0.2-0.5,0c-1.3-2.1-3.1-6.3-3.3-6.7c-1.9,1-5.6,3.1-9,5.9c-0.8,0.7-1.3,1.7-1.3,2.7l0,4.9h35V35.5  z M89.2,82.5c-0.2,0.5-2,4.6-3.3,6.7c-0.1,0.2-0.4,0.2-0.5,0c-0.3-0.9-1.2-2.8-2.3-3c-0.2,0-0.3-0.3-0.1-0.4c1.3-1,3.9-3.1,4.9-4.4  v-3.2c0.5-0.9,0.9-1.9,1-2.7c0.4,0,0.9-0.6,1.4-2.5c0.7-2.4,0-2.9-0.6-2.9c0.1-0.2,0.1-0.4,0.1-0.6c1.1-6.8-2.2-7-2.2-7  s-0.6-1.1-2-1.9c-1-0.6-2.3-1-4.1-0.9c-0.6,0-1.1,0.1-1.6,0.3l0,0c-0.7,0.2-1.3,0.5-1.8,0.9c-0.7,0.4-1.3,0.9-1.9,1.5  c-0.9,0.9-1.7,2.1-2,3.5c-0.3,1.1-0.2,2.2,0,3.4h0c0,0.2,0.1,0.4,0.1,0.6c-0.6,0-1.2,0.5-0.6,2.9c0.5,1.9,1,2.4,1.4,2.5  c0.1,0.9,0.5,1.8,1,2.7v3.2c1,1.2,3.6,3.3,4.9,4.4c0.2,0.1,0.1,0.4-0.1,0.4c-1.2,0.2-2,2-2.3,3c-0.1,0.2-0.4,0.2-0.5,0  c-1.3-2.1-3.1-6.3-3.3-6.7c-1.9,1-5.6,3.1-9,5.9c-0.8,0.7-1.3,1.7-1.3,2.7l0,4.9h35v-4.9c0-1-0.5-2-1.3-2.7  C94.8,85.6,91.1,83.5,89.2,82.5z M35.5,96v-4.9c0-1-0.5-2-1.3-2.7c-3.5-2.8-7.1-4.9-9-5.9c-0.2,0.5-2,4.6-3.3,6.7  c-0.1,0.2-0.4,0.2-0.5,0c-0.3-0.9-1.2-2.8-2.3-3c-0.2,0-0.3-0.3-0.1-0.4c1.3-1,3.9-3.1,4.9-4.4v-3.2c0.5-0.9,0.9-1.9,1-2.7  c0.4,0,0.9-0.6,1.4-2.5c0.7-2.4,0-2.9-0.6-2.9c0.1-0.2,0.1-0.4,0.1-0.6c1.1-6.8-2.2-7-2.2-7s-0.6-1.1-2-1.9c-1-0.6-2.3-1-4.1-0.9  c-0.6,0-1.1,0.1-1.6,0.3l0,0c-0.7,0.2-1.3,0.5-1.8,0.9c-0.7,0.4-1.3,0.9-1.9,1.5c-0.9,0.9-1.7,2.1-2,3.5c-0.3,1.1-0.2,2.2,0,3.4h0  c0,0.2,0.1,0.4,0.1,0.6c-0.6,0-1.2,0.5-0.6,2.9c0.5,1.9,1,2.4,1.4,2.5c0.1,0.9,0.5,1.8,1,2.7v3.2c1,1.2,3.6,3.3,4.9,4.4  c0.2,0.1,0.1,0.4-0.1,0.4c-1.2,0.2-2,2-2.3,3c-0.1,0.2-0.4,0.2-0.5,0c-1.3-2.1-3.1-6.3-3.3-6.7c-1.9,1-5.6,3.1-9,5.9  c-0.8,0.7-1.3,1.7-1.3,2.7l0,4.9H35.5z"/><text x="0" y="115" fill="#000000" font-size="5px" font-weight="bold" font-family="'Helvetica Neue', Helvetica, Arial-Unicode, Arial, Sans-serif">Created by Gregor Cresnar</text><text x="0" y="120" fill="#000000" font-size="5px" font-weight="bold" font-family="'Helvetica Neue', Helvetica, Arial-Unicode, Arial, Sans-serif">from the Noun Project</text></svg>