<svg 
    xmlns="http://www.w3.org/2000/svg" data-name="Layer 1" viewBox="0 0 100 125" x="0px" y="0px">
    <title>Artboard 18</title>
    <path d="M51.92,93.73A1.93,1.93,0,0,1,50,95.67h0a1.94,1.94,0,1,1,2-1.93Zm-23-63a1.94,1.94,0,1,0,2.7.43A1.94,1.94,0,0,0,29,30.71ZM63,89h0a1.94,1.94,0,1,0,2.56,1A1.94,1.94,0,0,0,63,89ZM83.74,58.21H84a1.91,1.91,0,1,0-.24,0ZM79.4,44.78a1.9,1.9,0,0,0,1-.26,1.93,1.93,0,1,0-1,.26ZM37,89a1.94,1.94,0,0,0-1.58,3.54,1.88,1.88,0,0,0,.75.17A1.94,1.94,0,0,0,37,89ZM71.57,33.48a1.94,1.94,0,1,0-2.71.42,1.94,1.94,0,0,0,2.71-.42ZM14.32,56h0Zm0,.06A1.94,1.94,0,0,0,16,58.15h.18a1.94,1.94,0,0,0,2-1.73v0s0,0,0,0A1.94,1.94,0,0,0,14.32,56v0A.05.05,0,0,0,14.32,56ZM19,41.77a1.94,1.94,0,0,0,.7,2.65,2,2,0,0,0,.94.26A1.94,1.94,0,1,0,19,41.77ZM66.69,60.91A16.68,16.68,0,1,1,50,44.23,16.68,16.68,0,0,1,66.69,60.91Zm-15,7.4a1,1,0,0,0-1-1H48.15a1,1,0,0,0-1,1V70a1,1,0,0,0,1,1h2.58a1,1,0,0,0,1-1Zm5.1-11.42A5.59,5.59,0,0,0,55,52.47a7.47,7.47,0,0,0-5.11-1.64A7.77,7.77,0,0,0,45,52.26a4.72,4.72,0,0,0-1.79,3.59.64.64,0,0,0,.63.68l2.93.05a1,1,0,0,0,1-.74,1.87,1.87,0,0,1,.54-.91,2.18,2.18,0,0,1,1.53-.56,2.23,2.23,0,0,1,1.75.68,2.63,2.63,0,0,1,.61,1.83,3.62,3.62,0,0,1-.53,2,4.43,4.43,0,0,1-1.44,1.42,10.09,10.09,0,0,0-2.44,2.2,4.28,4.28,0,0,0-.65,2.08.71.71,0,0,0,.71.77h3.18a.71.71,0,0,0,.71-.64A3.54,3.54,0,0,1,52,63.52a3.13,3.13,0,0,1,1.18-1.23A7.22,7.22,0,0,0,55.82,60,5.31,5.31,0,0,0,56.83,56.89ZM45.35,21.95a44.11,44.11,0,0,0-8,5.12,2.7,2.7,0,0,0-1,2.09V33H63.63V29.16a2.7,2.7,0,0,0-1-2.09,44.11,44.11,0,0,0-8-5.12.25.25,0,0,1-.14-.22V19.05A6.09,6.09,0,0,0,55.31,17c.3,0,.69-.44,1.11-1.92.57-2,0-2.33-.55-2.28a5.34,5.34,0,0,0,.22-.83c.87-5.25-1.71-5.44-1.71-5.44A4,4,0,0,0,52.81,5a5.25,5.25,0,0,0-3.2-.68,4.65,4.65,0,0,0-1.27.24h0a5.62,5.62,0,0,0-1.4.72,7.51,7.51,0,0,0-1.44,1.19,5.82,5.82,0,0,0-1.56,2.74,5.94,5.94,0,0,0,0,2.67h0a5.33,5.33,0,0,0,.22.83c-.52,0-1.13.25-.55,2.28.42,1.48.81,1.9,1.11,1.92a6.22,6.22,0,0,0,.77,2.12v2.64A.25.25,0,0,1,45.35,21.95Zm43,58a.25.25,0,0,1-.14-.22V77.05A6.09,6.09,0,0,0,89,75c.3,0,.69-.44,1.11-1.92.57-2,0-2.33-.55-2.28a5.34,5.34,0,0,0,.22-.83c.87-5.25-1.71-5.44-1.71-5.44A4,4,0,0,0,86.46,63a5.25,5.25,0,0,0-3.2-.68A4.65,4.65,0,0,0,82,62.6h0a5.62,5.62,0,0,0-1.4.72,7.51,7.51,0,0,0-1.44,1.19,5.82,5.82,0,0,0-1.56,2.74,5.94,5.94,0,0,0,0,2.67h0a5.33,5.33,0,0,0,.22.83c-.52,0-1.13.25-.55,2.28.42,1.48.81,1.9,1.11,1.92a6.22,6.22,0,0,0,.77,2.12v2.64a.25.25,0,0,1-.14.22,44.11,44.11,0,0,0-8,5.12,2.7,2.7,0,0,0-1,2.09V91H97.28V87.16a2.7,2.7,0,0,0-1-2.09A44.11,44.11,0,0,0,88.32,79.95ZM21,79.95a.25.25,0,0,1-.14-.22V77.05A6.09,6.09,0,0,0,21.63,75c.3,0,.69-.44,1.11-1.92.57-2,0-2.33-.55-2.28a5.34,5.34,0,0,0,.22-.83c.87-5.25-1.71-5.44-1.71-5.44A4,4,0,0,0,19.14,63a5.25,5.25,0,0,0-3.2-.68,4.65,4.65,0,0,0-1.27.24h0a5.62,5.62,0,0,0-1.4.72,7.51,7.51,0,0,0-1.44,1.19,5.82,5.82,0,0,0-1.56,2.74,5.94,5.94,0,0,0,0,2.67h0a5.33,5.33,0,0,0,.22.83c-.52,0-1.13.25-.55,2.28.42,1.48.81,1.9,1.11,1.92a6.22,6.22,0,0,0,.77,2.12v2.64a.25.25,0,0,1-.14.22,44.11,44.11,0,0,0-8,5.12,2.7,2.7,0,0,0-1,2.09V91H30V87.16a2.7,2.7,0,0,0-1-2.09A44.11,44.11,0,0,0,21,79.95Z"/>
</svg>