<svg 
    xmlns="http://www.w3.org/2000/svg" 
    xmlns:xlink="http://www.w3.org/1999/xlink" version="1.1" x="0px" y="0px" viewBox="0 0 48 60" enable-background="new 0 0 48 48" xml:space="preserve">
    <path d="M45.5,22h-3.7c-0.9-8.3-7.5-15-15.9-15.9V2.5c0-1.1-0.9-2-2-2s-2,0.9-2,2v3.7C13.7,7.1,7.1,13.7,6.2,22H2.5  c-1.1,0-2,0.9-2,2s0.9,2,2,2h3.7c0.9,8.3,7.5,15,15.9,15.9v3.7c0,1.1,0.9,2,2,2s2-0.9,2-2v-3.7c8.3-0.9,15-7.5,15.9-15.9h3.7  c1.1,0,2-0.9,2-2S46.6,22,45.5,22z M37.3,22h-4c-0.8-3.7-3.7-6.6-7.3-7.3v-4C31.8,11.6,36.4,16.2,37.3,22z M22,10.7v4  c-3.7,0.8-6.6,3.7-7.3,7.3h-4C11.6,16.2,16.2,11.6,22,10.7z M10.7,26h4c0.8,3.7,3.7,6.6,7.3,7.3v4C16.2,36.4,11.6,31.8,10.7,26z   M26,37.3v-4c3.7-0.8,6.6-3.7,7.3-7.3h4C36.4,31.8,31.8,36.4,26,37.3z"/>
</svg>