<svg xmlns="http://www.w3.org/2000/svg" xmlns:xlink="http://www.w3.org/1999/xlink" version="1.1" x="0px" y="0px" viewBox="0 0 75 93.75" enable-background="new 0 0 75 75" xml:space="preserve"><path d="M26.687,51.98c-0.299-0.692,0.69-0.989,0.69-0.989s2.673-0.198,4.552,2.822c0,0,0.07-0.01,0.19-0.013l0.044-0.102  c-0.028-0.002-0.044-0.003-0.044-0.003c0.016,0,0.029,0.001,0.044,0.001l0.186-0.43c0,0,0.224-1.14,0.224-1.609  c0-0.469-0.148-0.939-0.148-0.939l-1.608-5.543c0,0-0.321-0.94,0.52-1.262c0.841-0.322,1.188,0.445,1.188,0.445  s1.806,5.023,2.003,5.643c0.199,0.617,0.644-0.1,0.644-0.1l-0.098-6.434c0,0-0.124-1.064,1.014-1.164  c1.139-0.099,1.04,1.56,1.04,1.56s0.099,5.542,0.124,6.187c0.024,0.645,0.445,0.074,0.445,0.074s1.459-5.146,1.609-5.691  c0.147-0.544,0.396-1.138,1.213-1.015c0.815,0.124,0.493,1.881,0.493,1.881s-1.262,5.245-1.335,5.642  c-0.075,0.396,0.197,0.322,0.197,0.322s2.475-3.86,2.672-4.133c0.2-0.272,0.596-0.866,1.362-0.445s-0.247,2.104-0.247,2.104  s-1.881,3.291-2.055,3.612c-0.172,0.321-0.147,0.52-0.147,0.52l-0.124,2.525c-0.493,3.414-2.128,4.355-2.128,4.355l0.363,10.192  c-0.666,0.041-1.336,0.063-2.012,0.063c-1.421,0-2.819-0.094-4.192-0.271l0.299-10.283c0,0-0.446-0.297-1.336-0.843  c-0.89-0.544-1.732-1.879-1.93-2.325c-0.198-0.445-0.644-1.683-1.931-2.92C27.181,52.18,26.983,52.674,26.687,51.98z M53.055,23.573  l8.523-8.042c-1.319-1.442-2.766-2.764-4.323-3.95l-7.621,8.183c0,0-1.679-0.453-4.229,1.453l-1.727,1.566  c0,0-0.113,0.145-0.436,0.243c-0.322,0.096-3.695,1.016-3.695,1.016s-1.758,0.436-1.532,1.211c0.226,0.773,0.871,0.645,1.179,0.597  c0.306-0.048,4.438-0.953,4.438-0.953s0.227,0.13-0.08,0.339C43.244,25.448,39,28.046,39,28.046s-1.355,0.935-0.904,1.548  c0.452,0.613,1.001,0.388,1.452,0.129c0.453-0.258,4.76-2.663,4.76-2.663s0.647-0.097,0.243,0.339  c-0.403,0.436-3.954,4.115-3.954,4.115s-1.146,1.017-0.339,1.695c0.808,0.677,1.42-0.098,1.42-0.098l4.132-4.26  c0,0,0.758-0.176,0.485,0.355c-0.275,0.533-2.373,4.986-2.373,4.986s-0.274,0.727,0.484,1.065c0.759,0.338,1.161-0.484,1.161-0.484  l2.566-4.664c0,0,0.21-0.404,0.517-0.709c0.307-0.307,1.194-0.904,1.194-0.904l0.402-0.159c0.009,0.01,0.019,0.02,0.028,0.029  c0,0-0.01-0.01-0.027-0.031l0.095-0.037c0.081,0.076,0.132,0.115,0.132,0.115c-0.744,3.195,1.128,4.809,1.128,4.809  s0.84,0.451,1.097-0.195c0.258-0.645-0.193-0.452-0.227-2.097c-0.032-1.646,0.484-2.744,0.646-3.163  c0.163-0.42,0.484-1.84,0.259-2.775C53.151,24.058,53.055,23.573,53.055,23.573z M46.083,19.871  c-1.397-1.345-1.883-2.69-2.098-3.174c-0.216-0.485-1.131-1.937-2.099-2.527c-0.967-0.594-1.451-0.916-1.451-0.916l0.236-8.162  c-1.024-0.098-2.064-0.149-3.115-0.149c-1.157,0-2.299,0.062-3.424,0.179l0.278,7.808c0,0-1.776,1.022-2.313,4.734l-0.134,2.744  c0,0,0.026,0.216-0.16,0.566C31.614,21.323,29.57,24.9,29.57,24.9s-1.102,1.829-0.269,2.286c0.833,0.457,1.263-0.188,1.48-0.484  c0.215-0.296,2.905-4.492,2.905-4.492s0.297-0.081,0.215,0.35c-0.081,0.431-1.452,6.133-1.452,6.133s-0.35,1.909,0.537,2.044  s1.157-0.511,1.318-1.103c0.162-0.592,1.748-6.187,1.748-6.187s0.458-0.619,0.484,0.081c0.026,0.7,0.134,6.725,0.134,6.725  s-0.108,1.803,1.13,1.695c1.237-0.108,1.103-1.265,1.103-1.265l-0.107-6.993c0,0,0.483-0.779,0.699-0.108  c0.216,0.673,2.179,6.133,2.179,6.133s0.377,0.834,1.291,0.484s0.565-1.372,0.565-1.372l-1.749-6.024c0,0-0.161-0.512-0.161-1.021  c0-0.512,0.243-1.749,0.243-1.749l0.202-0.467c0.016,0,0.031,0,0.048,0c0,0-0.017,0-0.047-0.002l0.047-0.11  c0.132-0.004,0.206-0.013,0.206-0.013c2.043,3.283,4.948,3.066,4.948,3.066s1.076-0.323,0.751-1.075  C47.696,20.678,47.482,21.215,46.083,19.871z M32.133,30.675l-4.204-2.312c0,0-0.364-0.189-0.64-0.465  c-0.277-0.277-0.814-1.077-0.814-1.077l-0.144-0.362c0.009-0.009,0.017-0.017,0.026-0.026c0,0-0.01,0.009-0.027,0.024l-0.033-0.085  c0.068-0.073,0.104-0.119,0.104-0.119c2.88,0.67,4.334-1.017,4.334-1.017s0.407-0.757-0.176-0.988  c-0.582-0.233-0.407,0.174-1.891,0.204c-1.483,0.028-2.472-0.437-2.851-0.582c-0.379-0.146-1.659-0.437-2.501-0.232  c-0.844,0.202-1.281,0.29-1.281,0.29l-8.214-8.707c-1.229,1.309-2.351,2.718-3.352,4.215l8.134,7.575c0,0-0.408,1.514,1.31,3.811  l1.411,1.557c0,0,0.131,0.102,0.219,0.392c0.086,0.291,0.916,3.331,0.916,3.331s0.393,1.585,1.091,1.382  c0.697-0.204,0.581-0.785,0.539-1.062c-0.044-0.277-0.858-4-0.858-4s0.117-0.204,0.306,0.072c0.189,0.276,2.531,4.102,2.531,4.102  s0.843,1.222,1.396,0.815c0.553-0.408,0.349-0.902,0.116-1.309c-0.232-0.408-2.4-4.291-2.4-4.291s-0.087-0.583,0.305-0.218  c0.393,0.364,3.709,3.564,3.709,3.564s0.917,1.033,1.527,0.305c0.611-0.728-0.088-1.28-0.088-1.28l-3.839-3.725  c0,0-0.159-0.683,0.32-0.436c0.48,0.248,4.494,2.138,4.494,2.138s0.655,0.248,0.96-0.437C32.874,31.038,32.133,30.675,32.133,30.675  z M65.779,53.74l-5.251-4.891c0,0,0.533-1.979-1.713-4.983l-1.845-2.036c0,0-0.171-0.133-0.287-0.512  c-0.112-0.381-1.197-4.356-1.197-4.356s-0.513-2.072-1.427-1.806c-0.912,0.266-0.76,1.026-0.703,1.389  c0.057,0.361,1.122,5.23,1.122,5.23s-0.153,0.268-0.4-0.095c-0.247-0.361-3.309-5.364-3.309-5.364s-1.103-1.598-1.826-1.065  c-0.723,0.533-0.456,1.179-0.15,1.712c0.304,0.533,3.137,5.61,3.137,5.61s0.114,0.763-0.398,0.285c-0.515-0.477-4.85-4.66-4.85-4.66  s-1.199-1.35-1.998-0.399c-0.8,0.951,0.114,1.674,0.114,1.674l5.021,4.869c0,0,0.208,0.894-0.419,0.571  c-0.628-0.324-5.877-2.797-5.877-2.797s-0.856-0.323-1.256,0.571c-0.398,0.894,0.57,1.369,0.57,1.369l5.497,3.023  c0,0,0.475,0.248,0.835,0.607c0.362,0.362,1.065,1.409,1.065,1.409l0.188,0.473c-0.011,0.012-0.021,0.023-0.034,0.035  c0,0,0.013-0.012,0.036-0.032l0.044,0.111c-0.09,0.096-0.137,0.155-0.137,0.155c-3.765-0.877-5.667,1.33-5.667,1.33  s-0.533,0.989,0.229,1.291c0.76,0.305,0.533-0.227,2.473-0.266c1.938-0.037,3.232,0.57,3.727,0.761  c0.496,0.19,2.169,0.57,3.271,0.304c1.104-0.265,1.675-0.379,1.675-0.379l5.872,6.223C63.374,57.457,64.672,55.66,65.779,53.74z   M22.429,41.292c0.634-0.023,6.089-0.121,6.089-0.121s1.632,0.097,1.535-1.023s-1.146-0.999-1.146-0.999l-6.332,0.098  c0,0-0.706-0.438-0.098-0.634c0.609-0.195,5.553-1.973,5.553-1.973s0.756-0.34,0.439-1.169c-0.317-0.828-1.242-0.512-1.242-0.512  l-5.456,1.584c0,0-0.463,0.146-0.925,0.146c-0.463,0-1.583-0.22-1.583-0.22l-0.424-0.183c0-0.015,0-0.028,0-0.044  c0,0,0,0.015-0.002,0.044l-0.1-0.044c-0.003-0.118-0.012-0.186-0.012-0.186c2.972-1.85,2.777-4.48,2.777-4.48  s-0.293-0.974-0.974-0.68c-0.682,0.292-0.195,0.487-1.412,1.753c-1.218,1.266-2.436,1.705-2.874,1.899  c-0.439,0.195-1.753,1.023-2.289,1.9c-0.538,0.875-0.829,1.315-0.829,1.315L5,37.526c0.001,2.033,0.191,4.021,0.549,5.95  l7.284-0.258c0,0,0.926,1.607,4.287,2.094l2.485,0.121c0,0,0.195-0.023,0.512,0.146c0.316,0.171,3.555,2.022,3.555,2.022  s1.656,0.997,2.07,0.242c0.414-0.754-0.171-1.144-0.438-1.34c-0.268-0.194-4.068-2.63-4.068-2.63s-0.072-0.269,0.317-0.195  s5.553,1.315,5.553,1.315s1.729,0.316,1.851-0.486c0.122-0.804-0.463-1.048-0.999-1.192c-0.536-0.148-5.601-1.584-5.601-1.584  S21.795,41.315,22.429,41.292z"/><text x="0" y="90" fill="#000000" font-size="5px" font-weight="bold" font-family="'Helvetica Neue', Helvetica, Arial-Unicode, Arial, Sans-serif">Created by Stephen Borengasser</text><text x="0" y="95" fill="#000000" font-size="5px" font-weight="bold" font-family="'Helvetica Neue', Helvetica, Arial-Unicode, Arial, Sans-serif">from the Noun Project</text></svg>