<?xml version="1.0" encoding="utf-8"?>
<!-- Generator: Adobe Illustrator 16.0.0, SVG Export Plug-In . SVG Version: 6.00 Build 0)  -->
<!DOCTYPE svg PUBLIC "-//W3C//DTD SVG 1.1//EN" "http://www.w3.org/Graphics/SVG/1.1/DTD/svg11.dtd">
<svg version="1.1" xmlns="http://www.w3.org/2000/svg" xmlns:xlink="http://www.w3.org/1999/xlink" x="0px" y="0px" width="792px"
	 height="792px" viewBox="-90 0 792 792" enable-background="new -90 0 792 792" xml:space="preserve">
<g id="Layer_2" display="none">
	
		<linearGradient id="Gradient_Circle_1_" gradientUnits="userSpaceOnUse" x1="597.8633" y1="230.9473" x2="-127.1372" y2="640.9476">
		<stop  offset="0.3531" style="stop-color:#FFFFFF"/>
		<stop  offset="1" style="stop-color:#BEBEBE"/>
	</linearGradient>
	<circle id="Gradient_Circle" display="inline" fill="url(#Gradient_Circle_1_)" cx="306" cy="396" r="396"/>
	<circle id="White_Circle" fill="#FFFFFF" cx="307" cy="397" r="396"/>
</g>
<g id="Layer_1">
	<g>
		<g>
			<path fill="#3A3A3A" d="M263.036,720.732c0,0,4.246-15.957-20.222-30.014L28.157,566.242c0,0-19.282-11.291-22.792,10.459
				l3.51,245.445c0,0,0.892,10.449,14.898,16.514l216.404,136.641c0,0,14.391,7.855,18.792-12.164L263.036,720.732z"/>
			<path fill="#3A3A3A" d="M260.348,631.559l5.255-281.996c0,0-0.488-15.25-27.172-27.866L20.263,205.064
				c0,0-24.539-12.178-24.539,18.305l4.383,257.603c0,0-6.129,16.531,28.05,32.219l207.654,126.191
				C235.811,639.365,259.456,658.5,260.348,631.559L260.348,631.559z"/>
			<path fill="#AD020B" d="M269.987,260.766l3.508-316.798c0,0,2.638-12.642-25.427-25.245L20.261-188.331
				c0,0-21.899-10.447-22.79,17.4v294.198c0,0-2.341,13.267,20.152,25.239L244.54,275.583
				C244.561,275.568,263.824,286.027,269.987,260.766L269.987,260.766z"/>
			<path fill="#3A3A3A" d="M-37.581,545.387c0,0,6.129-14.812-21.898-31.348l-187.499-117.5c0,0-14.9-15.682-14.9,6.104
				l13.149,236.723c0,0-4.365,6.938,9.641,13.91L-50.7,785.557c0,0,17.52,13.086,17.52-6.936L-37.581,545.387z"/>
			<path fill="#3A3A3A" d="M-47.569,190.562c-0.958-11.381,3.65-19.74-20.661-33.361L-260.988,51.875
				c0,0-19.279-13.937-19.279,10.442l11.385,262.863c0,0,1.468,12.302,14.027,20.021l188.373,112.275
				c0,0,21.165,8.572,21.165-14.062C-45.3,443.42-46.891,198.663-47.569,190.562L-47.569,190.562z"/>
			<path fill="#3A3A3A" d="M-55.08-212.707c0,0-4.351-13.356-28.906-24.358l-188.391-86.188c0,0-29.793-12.179-24.537,17.398
				l18.389,281.133c0,0-0.369,15.456,22.79,26.112l185.752,96.608c0,0,25.218,15.147,26.285-6.086L-55.08-212.707z"/>
			<path fill="#BCBCBC" d="M304.796,976.879l3.073-245.258c0,0-3.073-15.229,16.888-28.936l205.436-138.6
				c0,0,16.872-12.178,16.872,18.246l-9.206,223.904c0,0,0,19.795-12.262,31.988L326.258,973.77
				C326.26,973.811,310.332,986.684,304.796,976.879L304.796,976.879z"/>
			<path fill="#BCBCBC" d="M298.892,646.324l5.255-280.246c0,0-5.255-17.423,21.92-31.332l216.404-117.523
				c0,0,20.151-7.821,19.28,9.578l-13.133,264.598c0,0,0,18.25-16.644,31.33L322.574,651.527
				C322.537,651.547,301.529,664.607,298.892,646.324L298.892,646.324z"/>
			<path fill="#FF1115" d="M305.896,271.21l4.364-315.063c0,0,2.656-22.643,22.789-29.599l232.176-109.674
				c0,0,21.027-12.179,20.151,6.974L574.01,131.936c0,0,2.62,19.157-16.644,30.453L335.699,284.242
				C335.708,284.295,305.896,306.896,305.896,271.21L305.896,271.21z"/>
			<path fill="#BCBCBC" d="M570.501,788.219l15.771-243.715c0,0-1.745-13.062,23.664-26.107l177.839-115.754
				c0,0,16.662-9.574,14.92,7.848l-22.796,230.627c0,0-1.22,19.811-13.496,26.32l-178.4,125.131
				C588.02,792.568,570.501,807.365,570.501,788.219L570.501,788.219z"/>
			<path fill="#BCBCBC" d="M589.78,469.66l14.008-271.572c0,0-2.619-10.444,16.663-23.491l191.015-112.28
				c0,0,19.277-10.442,17.53,10.446l-21.934,257.624c0,0,4.403,13.932-13.151,27.88L611.687,474.871
				C611.683,474.871,587.162,493.17,589.78,469.66L589.78,469.66z"/>
			<path fill="#BCBCBC" d="M615.192,104.997l15.789-308.978c0,0-1.763-15.664,18.389-20.019l193.648-91.392
				c0,0,25.391-7.825,23.628,8.708L843.019-17.724c0,0-0.895,25.238-22.795,27.863L635.364,111.103
				C635.347,111.088,612.52,126.649,615.192,104.997L615.192,104.997z"/>
		</g>
	</g>
</g>
</svg>
