<?xml version="1.0" encoding="utf-8"?>
<!-- Generator: Adobe Illustrator 16.0.0, SVG Export Plug-In . SVG Version: 6.00 Build 0)  -->
<!DOCTYPE svg PUBLIC "-//W3C//DTD SVG 1.1//EN" "http://www.w3.org/Graphics/SVG/1.1/DTD/svg11.dtd">
<svg version="1.1" xmlns="http://www.w3.org/2000/svg" xmlns:xlink="http://www.w3.org/1999/xlink" x="0px" y="0px" width="792px"
	 height="792px" viewBox="-90 0 792 792" enable-background="new -90 0 792 792" xml:space="preserve">
<g id="Layer_2">
	
		<linearGradient id="Gradient_Circle_1_" gradientUnits="userSpaceOnUse" x1="597.8633" y1="230.9473" x2="-127.1367" y2="640.9474">
		<stop  offset="0.3531" style="stop-color:#FFFFFF"/>
		<stop  offset="1" style="stop-color:#BEBEBE"/>
	</linearGradient>
	<circle id="Gradient_Circle" fill="url(#Gradient_Circle_1_)" cx="306" cy="396" r="396"/>
	<circle id="White_Circle" display="none" fill="#FFFFFF" cx="307" cy="397" r="396"/>
</g>
<g id="Layer_1">
	<g>
		<g>
			<path fill="#3A3A3A" d="M301.551,596.857c0,0,1.487-5.33-7.087-10.026l-75.221-41.584c0,0-6.756-3.771-7.986,3.494l1.23,81.997
				c0,0,0.312,3.49,5.22,5.518l75.833,45.646c0,0,5.043,2.625,6.585-4.063L301.551,596.857z"/>
			<path fill="#3A3A3A" d="M300.608,567.067l1.842-94.206c0,0-0.171-5.095-9.522-9.31l-76.451-38.964c0,0-8.599-4.068-8.599,6.115
				l1.536,86.059c0,0-2.148,5.522,9.829,10.763l72.767,42.157C292.01,569.676,300.296,576.068,300.608,567.067L300.608,567.067z"/>
			<path fill="#AD020B" d="M303.986,443.197l1.229-105.834c0,0,0.924-4.224-8.911-8.434l-79.829-35.764c0,0-7.674-3.49-7.986,5.813
				v98.283c0,0-0.82,4.433,7.062,8.432l79.517,42.453C295.076,448.141,301.826,451.636,303.986,443.197L303.986,443.197z"/>
			<path fill="#3A3A3A" d="M196.207,538.28c0,0,2.148-4.948-7.674-10.472l-65.704-39.255c0,0-5.221-5.238-5.221,2.04l4.608,79.082
				c0,0-1.53,2.318,3.378,4.647l66.016,44.191c0,0,6.139,4.371,6.139-2.317L196.207,538.28z"/>
			<path fill="#3A3A3A" d="M192.707,419.743c-0.336-3.802,1.279-6.595-7.24-11.146l-67.547-35.186c0,0-6.756-4.656-6.756,3.488
				l3.99,87.815c0,0,0.514,4.109,4.915,6.688l66.01,37.509c0,0,7.417,2.863,7.417-4.698
				C193.502,504.216,192.945,422.449,192.707,419.743L192.707,419.743z"/>
			<path fill="#3A3A3A" d="M190.075,285.022c0,0-1.524-4.462-10.129-8.137l-66.017-28.793c0,0-10.44-4.068-8.598,5.812l6.444,93.918
				c0,0-0.129,5.163,7.986,8.723l65.092,32.274c0,0,8.837,5.061,9.211-2.033L190.075,285.022z"/>
			<path fill="#3A3A3A" d="M109.322,558.27l-5.374-73.778c0,0-0.533-5.593-5.367-10.171l-55.882-33.068c0,0-7.785-6.086-6.983,7.127
				l6.438,67.676c0,0,0.569,6.71,8.06,9.667l51.579,36.125C101.8,561.829,109.554,569.415,109.322,558.27L109.322,558.27z"/>
			<path fill="#3A3A3A" d="M95.888,370.508c0,0,2.687-5.593-6.444-10.171l-55.882-32.062c0,0-6.438-5.598-6.438,6.613l6.983,81.417
				c0,0-0.539,5.09,7.521,9.158l52.118,31.551c0,0,7.528,6.619,6.983-3.553L95.888,370.508z"/>
			<path fill="#3A3A3A" d="M88.373,245.34c0,0,0.521-5.151-8.06-11.197l-60.178-25.438c0,0-4.835-3.054-4.835,6.613l8.593,89.561
				c0,0,1.481,5.024,6.444,7.122l56.414,31.552c0,0,9.064,3.176,9.137-3.054C95.968,334.361,88.373,245.34,88.373,245.34
				L88.373,245.34z"/>
			<path fill="#BCBCBC" d="M316.184,682.43l1.077-81.934c0,0-1.077-5.088,5.918-9.666l71.989-46.303c0,0,5.912-4.068,5.912,6.096
				l-3.226,74.8c0,0,0,6.613-4.297,10.687l-69.854,45.281C323.705,681.404,318.124,685.705,316.184,682.43L316.184,682.43z"/>
			<path fill="#BCBCBC" d="M314.115,572.001l1.842-93.623c0,0-1.842-5.819,7.681-10.467l75.833-39.261c0,0,7.062-2.613,6.757,3.199
				l-4.603,88.395c0,0,0,6.097-5.832,10.467l-73.379,43.027C322.401,573.745,315.039,578.108,314.115,572.001L314.115,572.001z"/>
			<path fill="#FF1115" d="M316.569,446.686l1.529-105.254c0,0,0.931-7.564,7.986-9.888l81.359-36.639c0,0,7.368-4.069,7.062,2.33
				l-3.983,102.924c0,0,0.918,6.399-5.832,10.173l-77.677,40.708C327.016,451.057,316.569,458.607,316.569,446.686L316.569,446.686z
				"/>
			<path fill="#BCBCBC" d="M409.293,619.403l5.526-81.417c0,0-0.611-4.364,8.293-8.724l62.319-38.669c0,0,5.838-3.198,5.228,2.621
				l-7.987,77.046c0,0-0.428,6.619-4.729,8.793l-62.517,41.803C415.432,620.856,409.293,625.801,409.293,619.403L409.293,619.403z"
				/>
			<path fill="#BCBCBC" d="M416.05,512.982l4.908-90.725c0,0-0.918-3.489,5.839-7.848l66.936-37.51c0,0,6.756-3.488,6.144,3.49
				l-7.687,86.065c0,0,1.543,4.654-4.608,9.313l-63.855,38.954C423.725,514.723,415.132,520.836,416.05,512.982L416.05,512.982z"/>
			<path fill="#BCBCBC" d="M424.954,391.158l5.533-103.221c0,0-0.618-5.233,6.443-6.688l67.858-30.532c0,0,8.898-2.614,8.28,2.909
				l-8.28,96.533c0,0-0.312,8.432-7.987,9.308l-64.778,33.729C432.017,393.193,424.018,398.392,424.954,391.158L424.954,391.158z"/>
			<path fill="#BCBCBC" d="M496.191,559.215l6.139-72.4c0,0-2.154-10.467,11.053-13.664l51.272-30.822c0,0,6.438-4.068,5.221,2.619
				l-8.286,74.144c0,0-2.154,9.019-6.751,10.756l-53.427,34.311C501.405,564.153,496.191,568.182,496.191,559.215L496.191,559.215z"
				/>
			<path fill="#BCBCBC" d="M504.245,458.027l8.054-83.699c0,0-0.27-11.198,9.145-13.99l53.458-27.739c0,0,7.791-3.814,6.176,3.055
				l-10.796,83.428c0,0,0.71,4.805-5.857,10.195l-53.464,31.805C510.959,461.082,504.245,465.406,504.245,458.027L504.245,458.027z"
				/>
			<path fill="#BCBCBC" d="M517.409,342.777l7.526-95.913c0,0,0.271-6.868,4.836-8.902l63.134-26.717c0,0,4.29-3.565,3.752,4.068
				l-9.4,94.388c0,0-0.496,4.115-6.182,6.612l-57.761,29.512C523.321,345.831,516.332,350.155,517.409,342.777L517.409,342.777z"/>
		</g>
	</g>
</g>
</svg>
