<?xml version="1.0" encoding="utf-8"?>
<!-- Generator: Adobe Illustrator 16.0.0, SVG Export Plug-In . SVG Version: 6.00 Build 0)  -->
<!DOCTYPE svg PUBLIC "-//W3C//DTD SVG 1.1//EN" "http://www.w3.org/Graphics/SVG/1.1/DTD/svg11.dtd">
<svg version="1.1" xmlns="http://www.w3.org/2000/svg" xmlns:xlink="http://www.w3.org/1999/xlink" x="0px" y="0px" width="792px"
	 height="792px" viewBox="-90 0 792 792" enable-background="new -90 0 792 792" xml:space="preserve">
<g id="Layer_2" display="none">
	
		<linearGradient id="Gradient_Circle_1_" gradientUnits="userSpaceOnUse" x1="597.8633" y1="230.9473" x2="-127.1372" y2="640.9476">
		<stop  offset="0.3531" style="stop-color:#FFFFFF"/>
		<stop  offset="1" style="stop-color:#BEBEBE"/>
	</linearGradient>
	<circle id="Gradient_Circle" display="inline" fill="url(#Gradient_Circle_1_)" cx="306" cy="396" r="396"/>
	<circle id="White_Circle" fill="#FFFFFF" cx="307" cy="397" r="396"/>
</g>
<g id="Layer_1">
	<g>
		<g>
			<path fill="#3A3A3A" d="M299.506,609.479c0,0,1.927-6.902-9.176-12.983l-97.404-53.848c0,0-8.749-4.884-10.342,4.524
				l1.593,106.179c0,0,0.404,4.52,6.76,7.145l98.197,59.108c0,0,6.53,3.399,8.527-5.262L299.506,609.479z"/>
			<path fill="#3A3A3A" d="M298.286,570.903l2.385-121.988c0,0-0.222-6.598-12.33-12.056l-98.998-50.454
				c0,0-11.135-5.269-11.135,7.918l1.989,111.438c0,0-2.781,7.151,12.728,13.938l94.227,54.59
				C287.152,574.281,297.881,582.559,298.286,570.903L298.286,570.903z"/>
			<path fill="#AD020B" d="M302.66,410.502l1.592-137.045c0,0,1.197-5.469-11.538-10.921l-103.372-46.312
				c0,0-9.938-4.519-10.341,7.527V351.02c0,0-1.062,5.74,9.145,10.918l102.967,54.973
				C291.123,416.904,299.863,421.43,302.66,410.502L302.66,410.502z"/>
			<path fill="#3A3A3A" d="M163.096,533.627c0,0,2.781-6.408-9.937-13.561l-85.081-50.831c0,0-6.761-6.783-6.761,2.642
				l5.967,102.404c0,0-1.981,3.002,4.375,6.018l85.485,57.225c0,0,7.95,5.66,7.95-3.001L163.096,533.627z"/>
			<path fill="#3A3A3A" d="M158.563,380.131c-0.435-4.923,1.656-8.54-9.375-14.432l-87.467-45.562c0,0-8.749-6.029-8.749,4.517
				l5.167,113.713c0,0,0.666,5.321,6.365,8.66l85.478,48.57c0,0,9.604,3.708,9.604-6.084
				C159.593,489.517,158.871,383.636,158.563,380.131L158.563,380.131z"/>
			<path fill="#3A3A3A" d="M155.155,205.68c0,0-1.974-5.778-13.117-10.537l-85.486-37.284c0,0-13.519-5.269-11.134,7.526
				l8.344,121.616c0,0-0.167,6.686,10.342,11.296l84.288,41.792c0,0,11.443,6.553,11.927-2.633L155.155,205.68z"/>
			<path fill="#3A3A3A" d="M50.587,559.511l-6.958-95.536c0,0-0.69-7.242-6.95-13.17l-72.362-42.821c0,0-10.081-7.88-9.043,9.229
				l8.336,87.634c0,0,0.737,8.688,10.438,12.518l66.79,46.779C40.847,564.12,50.888,573.943,50.587,559.511L50.587,559.511z"/>
			<path fill="#3A3A3A" d="M33.191,316.377c0,0,3.479-7.242-8.345-13.171l-72.362-41.518c0,0-8.336-7.249-8.336,8.563l9.042,105.428
				c0,0-0.698,6.591,9.739,11.859l67.488,40.855c0,0,9.748,8.571,9.042-4.601L33.191,316.377z"/>
			<path fill="#3A3A3A" d="M23.46,154.295c0,0,0.675-6.67-10.437-14.499l-77.926-32.941c0,0-6.261-3.954-6.261,8.564l11.127,115.973
				c0,0,1.918,6.506,8.344,9.222l73.051,40.857c0,0,11.737,4.113,11.832-3.955C33.294,269.569,23.46,154.295,23.46,154.295
				L23.46,154.295z"/>
			<path fill="#BCBCBC" d="M318.455,720.288l1.395-106.098c0,0-1.395-6.588,7.663-12.517l93.22-59.958c0,0,7.656-5.268,7.656,7.894
				l-4.178,96.859c0,0,0,8.563-5.563,13.838l-90.454,58.636C328.194,718.96,320.967,724.529,318.455,720.288L318.455,720.288z"/>
			<path fill="#BCBCBC" d="M315.776,577.292l2.385-121.233c0,0-2.385-7.536,9.946-13.554l98.197-50.839c0,0,9.145-3.384,8.749,4.143
				l-5.96,114.463c0,0,0,7.895-7.552,13.554l-95.02,55.717C326.506,579.551,316.973,585.201,315.776,577.292L315.776,577.292z"/>
			<path fill="#FF1115" d="M318.954,415.02l1.98-136.294c0,0,1.205-9.795,10.341-12.804l105.354-47.444c0,0,9.542-5.269,9.145,3.017
				l-5.158,133.277c0,0,1.188,8.287-7.552,13.173l-100.585,52.713C332.481,420.68,318.954,430.457,318.954,415.02L318.954,415.02z"
				/>
			<path fill="#BCBCBC" d="M439.023,638.674l7.156-105.428c0,0-0.792-5.651,10.738-11.296l80.698-50.073c0,0,7.56-4.142,6.77,3.394
				l-10.344,99.769c0,0-0.554,8.57-6.124,11.386l-80.953,54.131C446.973,640.556,439.023,646.958,439.023,638.674L439.023,638.674z"
				/>
			<path fill="#BCBCBC" d="M447.772,500.868l6.355-117.48c0,0-1.188-4.518,7.562-10.162l86.676-48.572c0,0,8.748-4.517,7.955,4.519
				l-9.953,111.446c0,0,1.998,6.027-5.968,12.061l-82.688,50.442C457.711,503.122,446.584,511.038,447.772,500.868L447.772,500.868z
				"/>
			<path fill="#BCBCBC" d="M459.303,343.117l7.165-133.662c0,0-0.8-6.776,8.344-8.66l87.871-39.536c0,0,11.522-3.385,10.722,3.767
				l-10.722,125.002c0,0-0.405,10.918-10.343,12.053l-83.883,43.677C468.448,345.752,458.09,352.483,459.303,343.117
				L459.303,343.117z"/>
			<path fill="#BCBCBC" d="M551.549,560.735l7.949-93.752c0,0-2.79-13.554,14.312-17.694l66.394-39.912c0,0,8.336-5.268,6.76,3.392
				l-10.729,96.01c0,0-2.79,11.678-8.742,13.928l-69.183,44.429C558.301,567.13,551.549,572.347,551.549,560.735L551.549,560.735z"
				/>
			<path fill="#BCBCBC" d="M561.978,429.706l10.429-108.383c0,0-0.349-14.501,11.842-18.116l69.224-35.919
				c0,0,10.089-4.939,7.997,3.956l-13.979,108.032c0,0,0.919,6.222-7.585,13.202l-69.231,41.185
				C570.673,433.662,561.978,439.262,561.978,429.706L561.978,429.706z"/>
			<path fill="#BCBCBC" d="M579.024,280.467l9.746-124.199c0,0,0.35-8.893,6.262-11.527l81.753-34.597c0,0,5.555-4.616,4.858,5.268
				l-12.173,122.224c0,0-0.643,5.329-8.005,8.562l-74.795,38.215C586.68,284.421,577.629,290.021,579.024,280.467L579.024,280.467z"
				/>
		</g>
	</g>
</g>
</svg>
