<svg 
    xmlns="http://www.w3.org/2000/svg" 
    xmlns:xlink="http://www.w3.org/1999/xlink" version="1.1" x="0px" y="0px" viewBox="0 0 100 100" enable-background="new 0 0 100 100" xml:space="preserve">
    <path d="M47.889,83.047l-2.151-0.067h-7.575l-0.825-6.548c-1.657,0.567-3.899,1.162-6.009,1.162  c-1.303,0-2.455-0.225-3.426-0.669c-3.239-1.482-6.155-5.332-7.416-7.172c-2.458-0.088-8.238-0.861-9.634-6.06  c-1.196-4.46,0.435-8.955,1.308-10.895c-0.783-1.856-1.793-5.912,0.787-11.485c2.328-5.029,5.675-7.084,7.742-7.909  c0.1-2.917,1.648-7.182,7.139-9.974c3.156-1.604,6.302-2.418,9.35-2.418c1.566,0,2.782,0.222,3.569,0.426  c1.971-1.044,7.241-3.418,14.411-3.418c1.371,0,2.76,0.088,4.125,0.263c8.691,1.112,12.536,4.422,13.998,6.167  c2.906,0.112,10.179,1.167,14.326,8.563c1.926,3.437,2.439,6.626,1.527,9.481c-0.998,3.121-3.568,5.623-7.859,7.649  c-3.465,1.636-10.144,2.811-13.565,3.335c0.16,1.918-0.12,4.767-2.2,7.847c-2.752,4.073-10.924,4.884-14.214,5.045  c-0.867,1.937-2.597,6.093-3.02,9.306c-0.551,4.186-0.542,5.187-0.54,5.227L47.889,83.047z M41.689,78.98h2.172  c0.085-0.886,0.225-2.117,0.449-3.825c0.654-4.966,3.762-11.354,3.893-11.624l0.544-1.11l1.237-0.011  c4.162-0.036,10.701-1.09,12.211-3.324c2.418-3.579,1.309-6.487,1.297-6.515l-1.018-2.423l2.607-0.334  c0.104-0.013,10.373-1.345,14.485-3.287c3.233-1.526,5.116-3.244,5.757-5.25c0.562-1.755,0.156-3.878-1.207-6.308  c-3.396-6.06-9.6-6.531-11.419-6.531c-0.175,0-0.284,0.005-0.31,0.007l-1.275,0.076L70.5,27.398  c-0.004-0.004-2.454-3.961-11.725-5.147c-1.197-0.153-2.414-0.231-3.617-0.231c-7.781,0-13.064,3.246-13.117,3.278l-0.883,0.552  l-0.965-0.405v0c0,0-1.12-0.434-3.016-0.434c-2.412,0-4.947,0.667-7.536,1.983c-5.63,2.863-4.979,6.98-4.887,7.44l0.425,2.112  l-2.132,0.294c-0.132,0.021-3.932,0.668-6.47,6.151c-2.521,5.445-0.604,8.558-0.52,8.688l0.643,1.007l-0.562,1.073  c-0.023,0.042-2.549,4.695-1.423,8.894c0.773,2.882,5.026,3.106,6.312,3.106c0.234,0,0.382-0.007,0.408-0.009l1.191-0.072  l0.636,1.014c0.896,1.441,3.774,5.436,6.305,6.594c0.444,0.203,1.036,0.306,1.761,0.306c2.528,0,5.773-1.283,6.811-1.777  l2.498-1.191L41.689,78.98z"/>
    <polygon points="52,43 45.334,43 48,28 43.567,36.495 36,51 42.666,51 40,66 "/>
</svg>