<svg xmlns="http://www.w3.org/2000/svg" xmlns:xlink="http://www.w3.org/1999/xlink" version="1.1" x="0px" y="0px" viewBox="0 0 128 160" style="enable-background:new 0 0 128 128;" xml:space="preserve"><g><path d="M38.273,74.207c1.434,1.503,3.29,2.408,5.294,2.601c0.702,3.297,3.546,5.774,6.942,5.774c0.757,0,1.613-0.044,2.459-0.244   c1.011,1.573,2.739,2.386,4.438,2.386c0.078,0,0.156-0.001,0.233-0.005c2.631-0.113,5.293-2.074,5.293-5.603v-10.01   c0-5.161-4.048-9.36-9.024-9.36c-1.104,0-2,0.896-2,2s0.896,2,2,2c2.77,0,5.024,2.404,5.024,5.36v10.01   c0,1.469-1.22,1.596-1.465,1.606c-0.464,0.033-1.253-0.122-1.372-1.253v-0.942c0-1.104-0.896-2-2-2   c-1.074,0-1.95,0.846-1.998,1.908c-0.573,0.146-1.291,0.146-1.589,0.146c-1.393,0-2.561-0.999-2.957-2.362   c1.088-0.448,2.088-1.123,2.937-2.013c0.763-0.799,0.733-2.065-0.066-2.828c-0.8-0.763-2.067-0.732-2.828,0.066   c-0.864,0.906-2.005,1.404-3.214,1.404s-2.35-0.499-3.214-1.404c-1.843-1.932-1.843-5.076,0-7.007   c0.763-0.799,0.733-2.065-0.066-2.828c-0.674-0.643-1.674-0.716-2.429-0.249c-1.516-1.059-2.482-2.868-2.482-4.853   c0-1.96,0.941-3.748,2.423-4.813l0.683,0.716c0.393,0.412,0.919,0.619,1.447,0.619c0.496,0,0.993-0.184,1.38-0.553   c0.799-0.763,0.829-2.029,0.066-2.828l-1.022-1.071c-1.843-1.932-1.843-5.076,0-7.007c0.864-0.906,2.005-1.404,3.214-1.404   s2.35,0.499,3.214,1.404c0.762,0.798,2.029,0.829,2.828,0.066c0.799-0.762,0.829-2.028,0.066-2.828   c-0.851-0.892-1.853-1.568-2.944-2.015c0.426-1.38,1.752-2.347,3.284-2.357c0.24,0.004,0.797,0.015,1.27,0.124   c0.057,1.054,0.929,1.891,1.997,1.891c1.104,0,2-0.896,2-2V33.51c0.118-1.13,0.907-1.277,1.372-1.253   c0.245,0.01,1.465,0.137,1.465,1.606v8.728c0,2.956-2.254,5.36-5.024,5.36c-1.104,0-2,0.896-2,2s0.896,2,2,2   c1.858,0,3.587-0.587,5.024-1.59v7.182c0,1.104,0.896,2,2,2s2-0.896,2-2V42.591v-8.728c0-3.529-2.663-5.49-5.293-5.603   c-1.779-0.074-3.648,0.731-4.703,2.395c-0.706-0.156-1.408-0.206-2.035-0.218c-3.543-0.054-6.601,2.413-7.331,5.77   c-2.006,0.193-3.863,1.098-5.298,2.601c-2.456,2.574-3.08,6.35-1.876,9.537c-2.58,1.795-4.208,4.85-4.208,8.161   c0,3.311,1.628,6.365,4.208,8.161C35.193,67.856,35.817,71.633,38.273,74.207z"/><path d="M67.067,52.153c-1.104,0-2,0.896-2,2v14.953v10.01c0,3.529,2.663,5.49,5.293,5.603c0.078,0.003,0.155,0.005,0.233,0.005   c1.699,0,3.427-0.813,4.438-2.386c0.846,0.2,1.702,0.244,2.46,0.244c3.396,0,6.239-2.476,6.942-5.774   c2.004-0.194,3.861-1.099,5.295-2.601c2.457-2.574,3.08-6.351,1.876-9.538c2.58-1.796,4.208-4.85,4.208-8.161   c0-3.311-1.628-6.365-4.208-8.161c1.204-3.187,0.581-6.964-1.876-9.538c-1.435-1.503-3.293-2.408-5.298-2.601   c-0.731-3.362-3.789-5.855-7.331-5.77c-0.627,0.011-1.33,0.062-2.035,0.218c-1.055-1.661-2.922-2.464-4.703-2.395   c-2.63,0.113-5.293,2.074-5.293,5.603v8.728c0,5.161,4.048,9.36,9.023,9.36c1.104,0,2-0.896,2-2s-0.896-2-2-2   c-2.77,0-5.023-2.405-5.023-5.36v-8.728c0-1.469,1.22-1.596,1.464-1.606c0.461-0.033,1.253,0.12,1.372,1.253v0.941   c0,1.104,0.896,2,2,2c1.068,0,1.94-0.837,1.997-1.891c0.472-0.109,1.029-0.119,1.27-0.124c1.53,0.006,2.859,0.976,3.285,2.357   c-1.091,0.448-2.093,1.124-2.944,2.015c-0.763,0.799-0.733,2.065,0.066,2.828c0.799,0.763,2.066,0.732,2.828-0.066   c0.864-0.905,2.005-1.404,3.214-1.404c1.209,0,2.351,0.499,3.215,1.404c1.843,1.932,1.843,5.076,0,7.007l-1.022,1.071   c-0.763,0.799-0.733,2.065,0.066,2.828c0.387,0.37,0.884,0.553,1.38,0.553c0.528,0,1.054-0.208,1.447-0.619l0.683-0.716   c1.482,1.064,2.423,2.853,2.423,4.812c0,1.985-0.966,3.795-2.482,4.854c-0.755-0.467-1.757-0.394-2.429,0.248   c-0.799,0.762-0.829,2.028-0.066,2.828c1.843,1.932,1.843,5.076,0,7.007c-0.864,0.906-2.006,1.404-3.215,1.404   c-1.208,0-2.35-0.499-3.214-1.404c-0.761-0.798-2.029-0.829-2.828-0.066c-0.799,0.762-0.829,2.028-0.066,2.828   c0.849,0.889,1.848,1.565,2.936,2.012c-0.396,1.364-1.564,2.363-2.957,2.363c-0.298,0-1.017,0-1.589-0.146   c-0.048-1.062-0.924-1.908-1.998-1.908c-1.104,0-2,0.896-2,2v0.941c-0.118,1.133-0.904,1.285-1.372,1.253   c-0.244-0.01-1.464-0.137-1.464-1.606v-10.01c0-2.956,2.253-5.36,5.023-5.36c1.104,0,2-0.896,2-2s-0.896-2-2-2   c-1.858,0-3.587,0.586-5.023,1.589v-7.182C69.067,53.049,68.172,52.153,67.067,52.153z"/><path d="M66.817,17.252c-11.144-0.773-21.74,2.974-29.848,10.541c-7.941,7.411-12.495,17.871-12.495,28.697   c0,12.717,6.227,24.714,16.658,32.09c2.368,1.675,3.781,4.452,3.781,7.429v0.31c0,1.104,0.896,2,2,2s2-0.896,2-2v-0.31   c0-4.273-2.045-8.271-5.472-10.694C34.07,78.686,28.475,67.911,28.475,56.49c0-9.865,3.986-19.018,11.224-25.773   c7.289-6.802,16.817-10.168,26.843-9.475c17.021,1.177,30.79,14.228,32.739,31.034c0.756,6.516-0.269,13.055-2.962,18.908   c-3.143,6.827-8.819,12.597-15.982,16.247l-0.158,0.081c-0.984,0.501-1.376,1.706-0.875,2.69c0.501,0.984,1.706,1.375,2.69,0.875   l0.159-0.081c7.961-4.057,14.282-10.498,17.799-18.139c3.001-6.52,4.143-13.796,3.302-21.042   C101.083,33.097,85.759,18.561,66.817,17.252z"/><path d="M44.38,15.396c0.324,0.761,1.063,1.218,1.842,1.218c0.261,0,0.526-0.051,0.781-0.16c1.017-0.432,1.491-1.606,1.059-2.623   l-0.249-0.586c-0.432-1.016-1.605-1.491-2.623-1.059c-1.017,0.432-1.491,1.606-1.059,2.623L44.38,15.396z"/><path d="M64,13.043c1.104,0,2-0.896,2-2V8.5c0-1.104-0.896-2-2-2s-2,0.896-2,2v2.543C62,12.147,62.896,13.043,64,13.043z"/><path d="M81.621,16.723c0.263,0.117,0.539,0.172,0.809,0.172c0.767,0,1.499-0.444,1.83-1.19l0.258-0.582   c0.447-1.01-0.009-2.191-1.019-2.639c-1.009-0.446-2.191,0.009-2.639,1.019l-0.258,0.582   C80.155,15.094,80.611,16.275,81.621,16.723z"/><path d="M96.797,26.856c0.5,0,1-0.186,1.389-0.561l1.834-1.77c0.795-0.767,0.817-2.033,0.051-2.828   c-0.768-0.795-2.034-0.816-2.828-0.051l-1.834,1.77c-0.795,0.767-0.817,2.033-0.051,2.828   C95.751,26.652,96.274,26.856,96.797,26.856z"/><path d="M106.36,41.452c0.248,0,0.501-0.046,0.745-0.145l0.593-0.238c1.024-0.412,1.521-1.577,1.109-2.602   c-0.412-1.024-1.577-1.523-2.602-1.109l-0.593,0.238c-1.024,0.412-1.521,1.577-1.109,2.602   C104.817,40.978,105.567,41.452,106.36,41.452z"/><path d="M112.229,55.235h-2.561c-1.104,0-2,0.896-2,2s0.896,2,2,2h2.561c1.104,0,2-0.896,2-2S113.333,55.235,112.229,55.235z"/><path d="M107.196,73.253l-0.585-0.257c-1.012-0.445-2.19,0.016-2.635,1.027c-0.444,1.012,0.016,2.191,1.027,2.635l0.585,0.257   c0.262,0.115,0.534,0.169,0.803,0.169c0.77,0,1.503-0.447,1.832-1.196C108.668,74.877,108.208,73.697,107.196,73.253z"/><path d="M97.227,87.725c-0.771-0.791-2.038-0.808-2.828-0.037c-0.792,0.771-0.808,2.037-0.037,2.828l1.779,1.826   c0.392,0.402,0.912,0.604,1.433,0.604c0.503,0,1.007-0.188,1.396-0.567c0.791-0.771,0.808-2.037,0.037-2.828L97.227,87.725z"/><path d="M29.815,86.684l-1.835,1.77c-0.795,0.767-0.818,2.033-0.051,2.828c0.393,0.407,0.916,0.611,1.439,0.611   c0.5,0,1-0.186,1.389-0.561l1.835-1.77c0.795-0.767,0.818-2.033,0.051-2.828C31.876,85.939,30.609,85.917,29.815,86.684z"/><path d="M20.895,71.672l-0.593,0.238c-1.025,0.412-1.521,1.577-1.109,2.602c0.313,0.78,1.063,1.254,1.856,1.254   c0.249,0,0.501-0.046,0.746-0.145l0.593-0.238c1.025-0.412,1.521-1.577,1.109-2.602C23.084,71.756,21.918,71.258,20.895,71.672z"/><path d="M20.327,55.815c0.017-1.104-0.865-2.014-1.969-2.031l-2.556-0.039c-0.011,0-0.021,0-0.031,0c-1.09,0-1.982,0.875-2,1.969   c-0.017,1.104,0.865,2.014,1.969,2.031l2.556,0.039c0.011,0,0.021,0,0.031,0C19.418,57.784,20.31,56.909,20.327,55.815z"/><path d="M22.995,36.32l-0.585-0.256c-1.01-0.441-2.191,0.018-2.635,1.029c-0.443,1.012,0.018,2.191,1.029,2.635l0.585,0.256   c0.261,0.114,0.534,0.168,0.802,0.168c0.77,0,1.504-0.447,1.833-1.198C24.468,37.943,24.007,36.763,22.995,36.32z"/><path d="M30.773,25.254c0.392,0.402,0.912,0.604,1.433,0.604c0.503,0,1.007-0.188,1.396-0.567c0.792-0.771,0.808-2.037,0.037-2.828   l-1.779-1.826c-0.772-0.792-2.037-0.808-2.828-0.037c-0.792,0.771-0.808,2.037-0.037,2.828L30.773,25.254z"/><path d="M81.087,94.318H56.661c-1.104,0-2,0.896-2,2s0.896,2,2,2h22.426v7.295c0,1.991-1.632,3.611-3.639,3.611H52.553   c-1.952,0-3.538-1.536-3.623-3.453h22.409c1.104,0,2-0.896,2-2s-0.896-2-2-2H46.924c-0.003,0-0.006-0.001-0.01-0.001   c-1.104,0-2,0.896-2,2v1.843c0,4.197,3.427,7.611,7.639,7.611h1.328c0.937,4.712,5.116,8.276,10.118,8.276   s9.181-3.564,10.118-8.276h1.329c4.212,0,7.639-3.414,7.639-7.611v-8.882c0-0.071-0.014-0.138-0.021-0.207   c0.007-0.069,0.021-0.136,0.021-0.207C83.087,95.213,82.191,94.318,81.087,94.318z M64,117.5c-2.779,0-5.14-1.794-5.983-4.276   h11.967C69.14,115.706,66.779,117.5,64,117.5z"/></g><text x="0" y="143" fill="#000000" font-size="5px" font-weight="bold" font-family="'Helvetica Neue', Helvetica, Arial-Unicode, Arial, Sans-serif">Created by Symbolon</text><text x="0" y="148" fill="#000000" font-size="5px" font-weight="bold" font-family="'Helvetica Neue', Helvetica, Arial-Unicode, Arial, Sans-serif">from the Noun Project</text></svg>